<svg xmlns="http://www.w3.org/2000/svg" version="1.1" xmlns:xlink="http://www.w3.org/1999/xlink" xmlns:svgjs="http://svgjs.dev/svgjs" viewBox="0 0 20.203668243346083 5.332345314725572"><g transform="matrix(1,0,0,1,4.906129890313138,0.9118594293798314)"><g><path d=" M 0.46125 1.18875 Q 0.40800000000000003 1.1684999999999999 0.34650000000000003 1.1204999999999998 L 0.321 1.188 L 0.084 1.188 L 0.084 0.831 L 0.3195 0.831 Q 0.342 0.8925 0.38925 0.9179999999999999 Q 0.4365 0.9435 0.5055000000000001 0.9435 Q 0.5475 0.9435 0.5775 0.92625 Q 0.6075 0.9089999999999999 0.6075 0.8805 Q 0.6075 0.8444999999999999 0.57675 0.8265 Q 0.546 0.8085 0.4905 0.7934999999999999 Q 0.34950000000000003 0.7545 0.25875 0.7094999999999999 Q 0.168 0.6645 0.1125 0.5804999999999999 Q 0.057 0.49649999999999994 0.057 0.35849999999999993 Q 0.057 0.2519999999999999 0.10275000000000001 0.17099999999999982 Q 0.1485 0.08999999999999986 0.234 0.04499999999999993 Q 0.3195 0 0.435 0 Q 0.5760000000000001 0 0.6585 0.08999999999999986 L 0.6960000000000001 0.020999999999999908 L 0.906 0.020999999999999908 L 0.906 0.37049999999999994 L 0.681 0.37049999999999994 Q 0.6495 0.3044999999999999 0.61125 0.2789999999999999 Q 0.5730000000000001 0.25349999999999995 0.507 0.25349999999999995 Q 0.456 0.25349999999999995 0.42825 0.27149999999999996 Q 0.4005 0.2895 0.4005 0.32099999999999995 Q 0.4005 0.3554999999999999 0.44025000000000003 0.37424999999999997 Q 0.48 0.3929999999999999 0.5535 0.4095 Q 0.684 0.4394999999999999 0.77475 0.4837499999999999 Q 0.8655 0.5279999999999999 0.92025 0.6097499999999999 Q 0.975 0.6915 0.975 0.8205 Q 0.975 0.9299999999999999 0.92925 1.0185 Q 0.8835000000000001 1.107 0.7987500000000001 1.158 Q 0.714 1.2089999999999999 0.6045 1.2089999999999999 Q 0.5145 1.2089999999999999 0.46125 1.18875 Z M 1.312426025390625 1.188 L 1.312426025390625 0.9239999999999999 L 1.4324260253906251 0.9239999999999999 L 1.4324260253906251 0.28049999999999997 L 1.3289260253906252 0.28049999999999997 L 1.2974260253906251 0.48149999999999993 L 1.091926025390625 0.48149999999999993 L 1.091926025390625 0.022499999999999964 L 2.1884260253906254 0.022499999999999964 L 2.1884260253906254 0.48149999999999993 L 1.9829260253906251 0.48149999999999993 L 1.9514260253906253 0.28049999999999997 L 1.8449260253906252 0.28049999999999997 L 1.8449260253906252 0.9239999999999999 L 1.964926025390625 0.9239999999999999 L 1.964926025390625 1.188 L 1.312426025390625 1.188 Z M 2.2828513183593753 1.188 L 2.2828513183593753 0.9299999999999999 L 2.398351318359375 0.9299999999999999 L 2.5993513183593753 0.28049999999999997 L 2.4463513183593752 0.28049999999999997 L 2.4463513183593752 0.022499999999999964 L 3.1723513183593752 0.022499999999999964 L 3.4318513183593753 0.9299999999999999 L 3.5473513183593752 0.9299999999999999 L 3.5473513183593752 1.188 L 2.8918513183593753 1.188 L 2.8918513183593753 0.9299999999999999 L 2.9863513183593753 0.9299999999999999 L 2.9548513183593754 0.8054999999999999 L 2.690851318359375 0.8054999999999999 L 2.6578513183593753 0.9299999999999999 L 2.7973513183593752 0.9299999999999999 L 2.7973513183593752 1.188 L 2.2828513183593753 1.188 Z M 2.7283513183593753 0.6285 L 2.9203513183593754 0.6285 L 2.8348513183593753 0.27149999999999996 L 2.7283513183593753 0.6285 Z M 3.62227294921875 1.188 L 3.62227294921875 0.9255 L 3.74077294921875 0.9255 L 3.74077294921875 0.2789999999999999 L 3.62527294921875 0.2789999999999999 L 3.62527294921875 0.020999999999999908 L 4.16377294921875 0.020999999999999908 L 4.52827294921875 0.714 L 4.52827294921875 0.28049999999999997 L 4.41127294921875 0.28049999999999997 L 4.41127294921875 0.022499999999999964 L 4.87777294921875 0.022499999999999964 L 4.87777294921875 0.28049999999999997 L 4.76227294921875 0.28049999999999997 L 4.76227294921875 1.188 L 4.31827294921875 1.188 L 3.97177294921875 0.5445 L 3.97177294921875 0.9255 L 4.08877294921875 0.9255 L 4.08877294921875 1.188 L 3.62227294921875 1.188 Z M 4.9797604980468755 0.9299999999999999 L 5.0967604980468755 0.9299999999999999 L 5.0967604980468755 0.28049999999999997 L 4.9797604980468755 0.28049999999999997 L 4.9797604980468755 0.022499999999999964 L 5.5197604980468755 0.022499999999999964 Q 5.837760498046875 0.022499999999999964 6.006510498046875 0.16949999999999998 Q 6.1752604980468755 0.3164999999999999 6.1752604980468755 0.6044999999999999 Q 6.1752604980468755 0.885 6.007260498046875 1.0365 Q 5.839260498046875 1.188 5.5182604980468755 1.188 L 4.9797604980468755 1.188 L 4.9797604980468755 0.9299999999999999 Z M 5.5182604980468755 0.9299999999999999 Q 5.641260498046876 0.9299999999999999 5.697510498046875 0.83775 Q 5.7537604980468755 0.7454999999999999 5.7537604980468755 0.6044999999999999 Q 5.7537604980468755 0.4604999999999999 5.698260498046875 0.37049999999999994 Q 5.642760498046876 0.28049999999999997 5.5182604980468755 0.28049999999999997 L 5.4717604980468755 0.28049999999999997 L 5.4717604980468755 0.9299999999999999 L 5.5182604980468755 0.9299999999999999 Z M 6.340232666015626 1.188 L 6.340232666015626 0.9299999999999999 L 6.481232666015626 0.9299999999999999 L 6.481232666015626 0.28049999999999997 L 6.340232666015626 0.28049999999999997 L 6.340232666015626 0.022499999999999964 L 7.301732666015626 0.022499999999999964 L 7.301732666015626 0.49349999999999994 L 7.090232666015626 0.49349999999999994 L 7.043732666015626 0.28049999999999997 L 6.856232666015626 0.28049999999999997 L 6.856232666015626 0.5009999999999999 L 7.019732666015626 0.5009999999999999 L 7.019732666015626 0.6884999999999999 L 6.856232666015626 0.6884999999999999 L 6.856232666015626 0.9299999999999999 L 6.995732666015626 0.9299999999999999 L 6.995732666015626 1.188 L 6.340232666015626 1.188 Z M 7.651909423828126 1.131 Q 7.5191594238281265 1.053 7.450159423828127 0.91575 Q 7.381159423828127 0.7785 7.381159423828127 0.603 Q 7.381159423828127 0.4214999999999999 7.450159423828127 0.2849999999999999 Q 7.5191594238281265 0.14849999999999985 7.651159423828126 0.07424999999999993 Q 7.783159423828127 0 7.967659423828127 0 Q 8.152159423828127 0 8.284159423828127 0.07424999999999993 Q 8.416159423828127 0.14849999999999985 8.485159423828126 0.2849999999999999 Q 8.554159423828127 0.4214999999999999 8.554159423828127 0.603 Q 8.554159423828127 0.7785 8.485159423828126 0.91575 Q 8.416159423828127 1.053 8.283409423828127 1.131 Q 8.150659423828127 1.2089999999999999 7.967659423828127 1.2089999999999999 Q 7.784659423828127 1.2089999999999999 7.651909423828126 1.131 Z M 8.089159423828127 0.8534999999999999 Q 8.131159423828127 0.7575 8.131159423828127 0.597 Q 8.131159423828127 0.44099999999999995 8.090659423828127 0.35024999999999995 Q 8.050159423828127 0.25949999999999995 7.967659423828127 0.25949999999999995 Q 7.885159423828126 0.25949999999999995 7.844659423828126 0.35024999999999995 Q 7.804159423828127 0.44099999999999995 7.804159423828127 0.597 Q 7.804159423828127 0.7575 7.8461594238281265 0.8534999999999999 Q 7.888159423828126 0.9494999999999999 7.967659423828127 0.9494999999999999 Q 8.047159423828127 0.9494999999999999 8.089159423828127 0.8534999999999999 Z M 8.747595703125002 0.9299999999999999 L 8.864595703125001 0.9299999999999999 L 8.864595703125001 0.28049999999999997 L 8.747595703125002 0.28049999999999997 L 8.747595703125002 0.022499999999999964 L 9.496095703125002 0.022499999999999964 Q 9.677595703125002 0.022499999999999964 9.763095703125002 0.09599999999999986 Q 9.848595703125003 0.16949999999999998 9.848595703125003 0.33899999999999997 Q 9.848595703125003 0.45299999999999996 9.784845703125002 0.5145 Q 9.721095703125002 0.576 9.604095703125003 0.597 Q 9.709095703125001 0.6134999999999999 9.755595703125003 0.67575 Q 9.802095703125001 0.738 9.802095703125001 0.831 L 9.802095703125001 0.9255 L 9.965595703125002 0.9255 L 9.965595703125002 1.188 L 9.730095703125002 1.188 Q 9.616095703125001 1.188 9.566595703125003 1.173 Q 9.517095703125003 1.158 9.490845703125002 1.0905 Q 9.464595703125003 1.023 9.464595703125003 0.8654999999999999 Q 9.464595703125003 0.7754999999999999 9.435345703125002 0.732 Q 9.406095703125002 0.6884999999999999 9.328095703125003 0.6884999999999999 L 9.239595703125001 0.6884999999999999 L 9.239595703125001 0.9299999999999999 L 9.356595703125002 0.9299999999999999 L 9.356595703125002 1.188 L 8.747595703125002 1.188 L 8.747595703125002 0.9299999999999999 Z M 9.340095703125002 0.5219999999999999 Q 9.419595703125003 0.5219999999999999 9.458595703125003 0.49349999999999994 Q 9.497595703125002 0.46499999999999997 9.497595703125002 0.3929999999999999 Q 9.497595703125002 0.3404999999999999 9.457845703125003 0.3104999999999999 Q 9.418095703125003 0.28049999999999997 9.355095703125002 0.28049999999999997 L 9.239595703125001 0.28049999999999997 L 9.239595703125001 0.5219999999999999 L 9.340095703125002 0.5219999999999999 Z M 0.34125 2.6407499999999997 Q 0.20700000000000002 2.5725 0.12675 2.43525 Q 0.0465 2.2979999999999996 0.0465 2.0984999999999996 Q 0.0465 1.9304999999999997 0.10725 1.7947499999999996 Q 0.168 1.6589999999999998 0.28575 1.5794999999999997 Q 0.4035 1.4999999999999998 0.5700000000000001 1.4999999999999998 Q 0.6555 1.4999999999999998 0.723 1.5397499999999997 Q 0.7905 1.5794999999999997 0.8205 1.6409999999999998 L 0.8505 1.5224999999999997 L 1.0785 1.5224999999999997 L 1.0785 2.0009999999999994 L 0.8445 2.0009999999999994 L 0.8445 1.9769999999999999 Q 0.8445 1.8839999999999997 0.80175 1.8247499999999997 Q 0.759 1.7654999999999998 0.675 1.7654999999999998 Q 0.618 1.7654999999999998 0.57075 1.8089999999999997 Q 0.5235 1.8524999999999996 0.4965 1.9229999999999996 Q 0.46950000000000003 1.9934999999999996 0.46950000000000003 2.0685 Q 0.46950000000000003 2.2154999999999996 0.543 2.2987499999999996 Q 0.6165 2.3819999999999997 0.744 2.3819999999999997 Q 0.834 2.3819999999999997 0.91125 2.352 Q 0.9885 2.3219999999999996 1.038 2.2874999999999996 L 1.0545 2.3009999999999997 L 1.0545 2.6129999999999995 Q 0.9615 2.667 0.858 2.6879999999999997 Q 0.7545000000000001 2.7089999999999996 0.6375000000000001 2.7089999999999996 Q 0.47550000000000003 2.7089999999999996 0.34125 2.6407499999999997 Z M 1.464665771484375 2.631 Q 1.331915771484375 2.553 1.2629157714843748 2.4157499999999996 Q 1.1939157714843749 2.2784999999999997 1.1939157714843749 2.1029999999999998 Q 1.1939157714843749 1.9214999999999995 1.2629157714843748 1.7849999999999997 Q 1.331915771484375 1.6484999999999996 1.463915771484375 1.5742499999999997 Q 1.5959157714843748 1.4999999999999998 1.780415771484375 1.4999999999999998 Q 1.964915771484375 1.4999999999999998 2.096915771484375 1.5742499999999997 Q 2.228915771484375 1.6484999999999996 2.2979157714843748 1.7849999999999997 Q 2.3669157714843747 1.9214999999999995 2.3669157714843747 2.1029999999999998 Q 2.3669157714843747 2.2784999999999997 2.2979157714843748 2.4157499999999996 Q 2.228915771484375 2.553 2.096165771484375 2.631 Q 1.963415771484375 2.7089999999999996 1.780415771484375 2.7089999999999996 Q 1.5974157714843749 2.7089999999999996 1.464665771484375 2.631 Z M 1.9019157714843749 2.3534999999999995 Q 1.9439157714843749 2.2575 1.9439157714843749 2.0969999999999995 Q 1.9439157714843749 1.9409999999999998 1.903415771484375 1.8502499999999997 Q 1.862915771484375 1.7594999999999996 1.780415771484375 1.7594999999999996 Q 1.697915771484375 1.7594999999999996 1.657415771484375 1.8502499999999997 Q 1.616915771484375 1.9409999999999998 1.616915771484375 2.0969999999999995 Q 1.616915771484375 2.2575 1.658915771484375 2.3534999999999995 Q 1.7009157714843748 2.4494999999999996 1.780415771484375 2.4494999999999996 Q 1.859915771484375 2.4494999999999996 1.9019157714843749 2.3534999999999995 Z M 2.5258520507812503 2.6879999999999997 L 2.5258520507812503 2.4254999999999995 L 2.6443520507812504 2.4254999999999995 L 2.6443520507812504 1.7789999999999997 L 2.5288520507812504 1.7789999999999997 L 2.5288520507812504 1.5209999999999997 L 3.0673520507812504 1.5209999999999997 L 3.4318520507812504 2.2139999999999995 L 3.4318520507812504 1.7804999999999997 L 3.3148520507812504 1.7804999999999997 L 3.3148520507812504 1.5224999999999997 L 3.7813520507812504 1.5224999999999997 L 3.7813520507812504 1.7804999999999997 L 3.6658520507812504 1.7804999999999997 L 3.6658520507812504 2.6879999999999997 L 3.2218520507812505 2.6879999999999997 L 2.8753520507812502 2.0444999999999998 L 2.8753520507812502 2.4254999999999995 L 2.99235205078125 2.4254999999999995 L 2.99235205078125 2.6879999999999997 L 2.5258520507812503 2.6879999999999997 Z M 4.2980895996093755 2.6887499999999998 Q 4.244839599609375 2.6685 4.183339599609376 2.6205 L 4.1578395996093755 2.6879999999999997 L 3.9208395996093754 2.6879999999999997 L 3.9208395996093754 2.3309999999999995 L 4.1563395996093755 2.3309999999999995 Q 4.1788395996093755 2.3924999999999996 4.2260895996093755 2.4179999999999997 Q 4.2733395996093755 2.4435 4.342339599609375 2.4435 Q 4.384339599609375 2.4435 4.4143395996093755 2.4262499999999996 Q 4.444339599609376 2.409 4.444339599609376 2.3804999999999996 Q 4.444339599609376 2.3444999999999996 4.4135895996093755 2.3265 Q 4.382839599609375 2.3084999999999996 4.327339599609376 2.2935 Q 4.186339599609376 2.2544999999999997 4.095589599609375 2.2095 Q 4.004839599609375 2.1645 3.949339599609375 2.0805 Q 3.8938395996093753 1.9964999999999997 3.8938395996093753 1.8584999999999998 Q 3.8938395996093753 1.7519999999999998 3.9395895996093753 1.6709999999999996 Q 3.9853395996093752 1.5899999999999996 4.070839599609376 1.5449999999999997 Q 4.1563395996093755 1.4999999999999998 4.271839599609375 1.4999999999999998 Q 4.412839599609375 1.4999999999999998 4.495339599609375 1.5899999999999996 L 4.5328395996093755 1.5209999999999997 L 4.7428395996093755 1.5209999999999997 L 4.7428395996093755 1.8704999999999998 L 4.517839599609376 1.8704999999999998 Q 4.486339599609376 1.8044999999999995 4.448089599609375 1.7789999999999997 Q 4.409839599609375 1.7534999999999998 4.3438395996093755 1.7534999999999998 Q 4.292839599609375 1.7534999999999998 4.265089599609375 1.7714999999999996 Q 4.237339599609375 1.7894999999999999 4.237339599609375 1.8209999999999997 Q 4.237339599609375 1.8554999999999997 4.277089599609376 1.8742499999999997 Q 4.316839599609375 1.8929999999999998 4.3903395996093755 1.9094999999999998 Q 4.520839599609375 1.9394999999999998 4.611589599609376 1.9837499999999997 Q 4.702339599609376 2.0279999999999996 4.757089599609375 2.1097499999999996 Q 4.8118395996093755 2.1914999999999996 4.8118395996093755 2.3204999999999996 Q 4.8118395996093755 2.4299999999999997 4.7660895996093755 2.5184999999999995 Q 4.7203395996093755 2.6069999999999998 4.635589599609375 2.658 Q 4.550839599609375 2.7089999999999996 4.441339599609376 2.7089999999999996 Q 4.351339599609375 2.7089999999999996 4.2980895996093755 2.6887499999999998 Z M 5.149265625000001 2.6879999999999997 L 5.149265625000001 2.4239999999999995 L 5.269265625000001 2.4239999999999995 L 5.269265625000001 1.7804999999999997 L 5.165765625000001 1.7804999999999997 L 5.134265625 1.9814999999999996 L 4.9287656250000005 1.9814999999999996 L 4.9287656250000005 1.5224999999999997 L 6.025265625 1.5224999999999997 L 6.025265625 1.9814999999999996 L 5.8197656250000005 1.9814999999999996 L 5.788265625 1.7804999999999997 L 5.681765625000001 1.7804999999999997 L 5.681765625000001 2.4239999999999995 L 5.801765625000001 2.4239999999999995 L 5.801765625000001 2.6879999999999997 L 5.149265625000001 2.6879999999999997 Z M 6.190190917968751 2.4299999999999997 L 6.307190917968751 2.4299999999999997 L 6.307190917968751 1.7804999999999997 L 6.190190917968751 1.7804999999999997 L 6.190190917968751 1.5224999999999997 L 6.938690917968751 1.5224999999999997 Q 7.120190917968751 1.5224999999999997 7.205690917968751 1.5959999999999996 Q 7.291190917968751 1.6694999999999998 7.291190917968751 1.8389999999999997 Q 7.291190917968751 1.9529999999999998 7.227440917968751 2.0145 Q 7.163690917968751 2.0759999999999996 7.046690917968752 2.0969999999999995 Q 7.151690917968751 2.1134999999999997 7.198190917968751 2.17575 Q 7.244690917968751 2.2379999999999995 7.244690917968751 2.3309999999999995 L 7.244690917968751 2.4254999999999995 L 7.408190917968751 2.4254999999999995 L 7.408190917968751 2.6879999999999997 L 7.172690917968751 2.6879999999999997 Q 7.058690917968751 2.6879999999999997 7.009190917968751 2.6729999999999996 Q 6.959690917968751 2.658 6.933440917968751 2.5904999999999996 Q 6.907190917968751 2.5229999999999997 6.907190917968751 2.3655 Q 6.907190917968751 2.2754999999999996 6.877940917968751 2.2319999999999998 Q 6.848690917968751 2.1885 6.770690917968751 2.1885 L 6.682190917968751 2.1885 L 6.682190917968751 2.4299999999999997 L 6.799190917968751 2.4299999999999997 L 6.799190917968751 2.6879999999999997 L 6.190190917968751 2.6879999999999997 L 6.190190917968751 2.4299999999999997 Z M 6.782690917968751 2.022 Q 6.862190917968751 2.022 6.901190917968751 1.9934999999999996 Q 6.940190917968751 1.9649999999999999 6.940190917968751 1.8929999999999998 Q 6.940190917968751 1.8404999999999996 6.900440917968751 1.8104999999999998 Q 6.860690917968751 1.7804999999999997 6.797690917968751 1.7804999999999997 L 6.682190917968751 1.7804999999999997 L 6.682190917968751 2.022 L 6.782690917968751 2.022 Z M 7.677377197265627 2.5725 Q 7.562627197265627 2.436 7.562627197265627 2.1719999999999997 L 7.562627197265627 1.7804999999999997 L 7.444127197265627 1.7804999999999997 L 7.444127197265627 1.5224999999999997 L 8.080127197265627 1.5224999999999997 L 8.080127197265627 1.7804999999999997 L 7.9721271972656265 1.7804999999999997 L 7.9721271972656265 2.271 Q 7.9721271972656265 2.3429999999999995 8.007377197265626 2.38875 Q 8.042627197265627 2.4345 8.117627197265627 2.4345 Q 8.180627197265627 2.4345 8.217377197265627 2.397 Q 8.254127197265626 2.3594999999999997 8.254127197265626 2.295 L 8.254127197265626 1.7804999999999997 L 8.134127197265627 1.7804999999999997 L 8.134127197265627 1.5224999999999997 L 8.612627197265628 1.5224999999999997 L 8.612627197265628 1.7804999999999997 L 8.500127197265627 1.7804999999999997 L 8.500127197265627 2.2844999999999995 Q 8.500127197265627 2.4944999999999995 8.377127197265626 2.6017499999999996 Q 8.254127197265626 2.7089999999999996 8.053127197265626 2.7089999999999996 Q 7.792127197265627 2.7089999999999996 7.677377197265627 2.5725 Z M 9.009360351562503 2.6407499999999997 Q 8.875110351562503 2.5725 8.794860351562502 2.43525 Q 8.714610351562502 2.2979999999999996 8.714610351562502 2.0984999999999996 Q 8.714610351562502 1.9304999999999997 8.775360351562503 1.7947499999999996 Q 8.836110351562501 1.6589999999999998 8.953860351562502 1.5794999999999997 Q 9.071610351562502 1.4999999999999998 9.238110351562502 1.4999999999999998 Q 9.323610351562502 1.4999999999999998 9.391110351562503 1.5397499999999997 Q 9.458610351562502 1.5794999999999997 9.488610351562503 1.6409999999999998 L 9.518610351562502 1.5224999999999997 L 9.746610351562502 1.5224999999999997 L 9.746610351562502 2.0009999999999994 L 9.512610351562502 2.0009999999999994 L 9.512610351562502 1.9769999999999999 Q 9.512610351562502 1.8839999999999997 9.469860351562502 1.8247499999999997 Q 9.427110351562503 1.7654999999999998 9.343110351562503 1.7654999999999998 Q 9.286110351562503 1.7654999999999998 9.238860351562503 1.8089999999999997 Q 9.191610351562503 1.8524999999999996 9.164610351562501 1.9229999999999996 Q 9.137610351562502 1.9934999999999996 9.137610351562502 2.0685 Q 9.137610351562502 2.2154999999999996 9.211110351562501 2.2987499999999996 Q 9.284610351562502 2.3819999999999997 9.412110351562502 2.3819999999999997 Q 9.502110351562502 2.3819999999999997 9.579360351562503 2.352 Q 9.656610351562502 2.3219999999999996 9.706110351562502 2.2874999999999996 L 9.722610351562501 2.3009999999999997 L 9.722610351562501 2.6129999999999995 Q 9.629610351562501 2.667 9.526110351562503 2.6879999999999997 Q 9.422610351562502 2.7089999999999996 9.305610351562501 2.7089999999999996 Q 9.143610351562502 2.7089999999999996 9.009360351562503 2.6407499999999997 Z M 10.082526123046877 2.6879999999999997 L 10.082526123046877 2.4239999999999995 L 10.202526123046878 2.4239999999999995 L 10.202526123046878 1.7804999999999997 L 10.099026123046878 1.7804999999999997 L 10.067526123046878 1.9814999999999996 L 9.862026123046878 1.9814999999999996 L 9.862026123046878 1.5224999999999997 L 10.958526123046878 1.5224999999999997 L 10.958526123046878 1.9814999999999996 L 10.753026123046878 1.9814999999999996 L 10.721526123046878 1.7804999999999997 L 10.615026123046878 1.7804999999999997 L 10.615026123046878 2.4239999999999995 L 10.735026123046877 2.4239999999999995 L 10.735026123046877 2.6879999999999997 L 10.082526123046877 2.6879999999999997 Z M 11.123451416015628 2.6879999999999997 L 11.123451416015628 2.4299999999999997 L 11.240451416015627 2.4299999999999997 L 11.240451416015627 1.7804999999999997 L 11.123451416015628 1.7804999999999997 L 11.123451416015628 1.5224999999999997 L 11.732451416015628 1.5224999999999997 L 11.732451416015628 1.7804999999999997 L 11.615451416015627 1.7804999999999997 L 11.615451416015627 2.4299999999999997 L 11.732451416015628 2.4299999999999997 L 11.732451416015628 2.6879999999999997 L 11.123451416015628 2.6879999999999997 Z M 12.114131103515628 2.631 Q 11.981381103515629 2.553 11.91238110351563 2.4157499999999996 Q 11.843381103515629 2.2784999999999997 11.843381103515629 2.1029999999999998 Q 11.843381103515629 1.9214999999999995 11.91238110351563 1.7849999999999997 Q 11.981381103515629 1.6484999999999996 12.113381103515628 1.5742499999999997 Q 12.245381103515628 1.4999999999999998 12.42988110351563 1.4999999999999998 Q 12.61438110351563 1.4999999999999998 12.74638110351563 1.5742499999999997 Q 12.878381103515629 1.6484999999999996 12.947381103515628 1.7849999999999997 Q 13.016381103515629 1.9214999999999995 13.016381103515629 2.1029999999999998 Q 13.016381103515629 2.2784999999999997 12.947381103515628 2.4157499999999996 Q 12.878381103515629 2.553 12.74563110351563 2.631 Q 12.61288110351563 2.7089999999999996 12.42988110351563 2.7089999999999996 Q 12.246881103515628 2.7089999999999996 12.114131103515628 2.631 Z M 12.551381103515629 2.3534999999999995 Q 12.593381103515629 2.2575 12.593381103515629 2.0969999999999995 Q 12.593381103515629 1.9409999999999998 12.55288110351563 1.8502499999999997 Q 12.51238110351563 1.7594999999999996 12.42988110351563 1.7594999999999996 Q 12.347381103515628 1.7594999999999996 12.306881103515629 1.8502499999999997 Q 12.266381103515629 1.9409999999999998 12.266381103515629 2.0969999999999995 Q 12.266381103515629 2.2575 12.308381103515629 2.3534999999999995 Q 12.350381103515629 2.4494999999999996 12.42988110351563 2.4494999999999996 Q 12.50938110351563 2.4494999999999996 12.551381103515629 2.3534999999999995 Z M 13.175317382812505 2.6879999999999997 L 13.175317382812505 2.4254999999999995 L 13.293817382812504 2.4254999999999995 L 13.293817382812504 1.7789999999999997 L 13.178317382812505 1.7789999999999997 L 13.178317382812505 1.5209999999999997 L 13.716817382812504 1.5209999999999997 L 14.081317382812504 2.2139999999999995 L 14.081317382812504 1.7804999999999997 L 13.964317382812505 1.7804999999999997 L 13.964317382812505 1.5224999999999997 L 14.430817382812505 1.5224999999999997 L 14.430817382812505 1.7804999999999997 L 14.315317382812504 1.7804999999999997 L 14.315317382812504 2.6879999999999997 L 13.871317382812505 2.6879999999999997 L 13.524817382812504 2.0444999999999998 L 13.524817382812504 2.4254999999999995 L 13.641817382812505 2.4254999999999995 L 13.641817382812505 2.6879999999999997 L 13.175317382812505 2.6879999999999997 Z" fill="#431a10" fill-rule="nonzero"></path></g><g><path d=" M 0.21439985795454544 3.0875504616477274 Q 0.1504794034090909 3.0875504616477274 0.12970525568181818 3.111653799715909 Q 0.10893110795454544 3.1357571377840907 0.10893110795454544 3.165853018465909 Q 0.10893110795454544 3.1916875355113636 0.12690873579545453 3.2075344815340907 Q 0.14488636363636362 3.2233814275568182 0.1805752840909091 3.2321704900568182 L 0.2570134943181818 3.251080291193182 Q 0.30948153409090906 3.2641307173295453 0.34250710227272724 3.2938270951704545 Q 0.3755326704545454 3.3235234730113636 0.3755326704545454 3.386644921875 Q 0.3755326704545454 3.455625745738636 0.32093394886363635 3.4857216264204545 Q 0.26633522727272724 3.515817507102273 0.1965553977272727 3.515817507102273 Q 0.16832386363636362 3.515817507102273 0.1387606534090909 3.508360120738636 Q 0.10919744318181818 3.500902734375 0.08362926136363635 3.483324609375 Q 0.08256392045454544 3.492380007102273 0.07803622159090909 3.503832421875 Q 0.07350852272727272 3.5152848366477274 0.064453125 3.5152848366477274 Q 0.054865056818181816 3.5152848366477274 0.049005681818181816 3.511289808238636 Q 0.043146306818181816 3.5072947798295453 0.042080965909090905 3.498239382102273 L 0.026899857954545452 3.366137109375 Q 0.026899857954545452 3.3554837002840907 0.033291903409090905 3.350290163352273 Q 0.03968394886363636 3.3450966264204545 0.05246803977272727 3.3450966264204545 Q 0.06045809659090909 3.3450966264204545 0.06658380681818181 3.3497574928977274 Q 0.07270951704545454 3.354418359375 0.07377485795454546 3.362408416193182 L 0.07803622159090909 3.3994290127840907 Q 0.08069957386363635 3.4241981889204545 0.11479048295454544 3.4464371803977274 Q 0.14888139204545453 3.468676171875 0.18989701704545453 3.468676171875 Q 0.23544034090909088 3.468676171875 0.2781871448863636 3.4524297230113636 Q 0.32093394886363635 3.4361832741477274 0.32093394886363635 3.3863785866477274 Q 0.32093394886363635 3.350423330965909 0.29922762784090906 3.3363075639204545 Q 0.2775213068181818 3.322191796875 0.24769176136363635 3.313669069602273 L 0.1603338068181818 3.288899893465909 Q 0.11265980113636363 3.278246484375 0.08136541193181818 3.2509471235795453 Q 0.05007102272727272 3.2236477627840907 0.05007102272727272 3.170114382102273 Q 0.05007102272727272 3.1117869673295453 0.09574751420454544 3.0786282315340907 Q 0.14142400568181818 3.0454694957386366 0.20561079545454544 3.0454694957386366 Q 0.23330965909090906 3.0454694957386366 0.2624733664772727 3.0523942116477274 Q 0.29163707386363635 3.0593189275568182 0.3108132102272727 3.075299041193182 Q 0.3108132102272727 3.0641129616477274 0.31787109375 3.0549243963068182 Q 0.32492897727272724 3.045735830965909 0.33584872159090906 3.045735830965909 Q 0.3438387784090909 3.045735830965909 0.3499644886363636 3.0505298650568182 Q 0.35609019886363635 3.0553238991477274 0.35715553977272724 3.063313955965909 L 0.35901988636363635 3.169049041193182 Q 0.35901988636363635 3.180501455965909 0.3520951704545454 3.1856949928977274 Q 0.34517045454545453 3.1908885298295453 0.3345170454545454 3.1908885298295453 Q 0.3251953125 3.1908885298295453 0.3192027698863636 3.1868935014204545 Q 0.31321022727272724 3.1828984730113636 0.31214488636363635 3.1741094105113636 L 0.3110795454545454 3.1432145241477274 Q 0.3076171875 3.113118643465909 0.27805397727272724 3.1003345525568182 Q 0.24849076704545453 3.0875504616477274 0.21439985795454544 3.0875504616477274 L 0.21439985795454544 3.0875504616477274 Z M 0.43226207386363635 3.193285546875 Q 0.42347301136363635 3.193285546875 0.41881214488636365 3.187426171875 Q 0.4141512784090909 3.181566796875 0.4141512784090909 3.171978728693182 L 0.4181463068181818 3.0729020241477274 Q 0.41841264204545453 3.0625149502840907 0.421875 3.057321413352273 Q 0.42533735795454547 3.0521278764204545 0.4343927556818182 3.0521278764204545 L 0.8184481534090908 3.0521278764204545 Q 0.8269708806818181 3.0521278764204545 0.8306995738636364 3.057454580965909 Q 0.8344282670454546 3.0627812855113636 0.8346946022727273 3.0729020241477274 L 0.8386896306818181 3.171978728693182 Q 0.8386896306818181 3.181566796875 0.8340287642045454 3.187426171875 Q 0.8293678977272727 3.193285546875 0.8205788352272727 3.193285546875 Q 0.8112571022727273 3.193285546875 0.8055308948863635 3.189290518465909 Q 0.7998046875 3.1852954900568182 0.7987393465909091 3.1754410866477274 L 0.7904829545454546 3.0990028764204545 L 0.6546519886363636 3.0990028764204545 L 0.6546519886363636 3.461751455965909 L 0.7252308238636364 3.461751455965909 Q 0.7353515625 3.461751455965909 0.73974609375 3.469075674715909 Q 0.744140625 3.476399893465909 0.744140625 3.486254296875 Q 0.744140625 3.495043359375 0.7390802556818181 3.5018349076704545 Q 0.7340198863636364 3.508626455965909 0.7246981534090908 3.508626455965909 L 0.5228160511363636 3.508626455965909 Q 0.5134943181818181 3.508626455965909 0.50830078125 3.5018349076704545 Q 0.5031072443181818 3.495043359375 0.5031072443181818 3.486254296875 Q 0.5031072443181818 3.476399893465909 0.5076349431818181 3.469075674715909 Q 0.5121626420454546 3.461751455965909 0.5222833806818181 3.461751455965909 L 0.5925958806818181 3.461751455965909 L 0.5925958806818181 3.0990028764204545 L 0.4620916193181818 3.0990028764204545 L 0.4541015625 3.1754410866477274 Q 0.45303622159090906 3.1855618252840907 0.44731001420454547 3.1894236860795453 Q 0.4415838068181818 3.193285546875 0.43226207386363635 3.193285546875 L 0.43226207386363635 3.193285546875 Z M 0.8504083806818181 3.486254296875 Q 0.8504083806818181 3.476399893465909 0.8549360795454545 3.469075674715909 Q 0.8594637784090908 3.461751455965909 0.8695845170454545 3.461751455965909 L 0.9066051136363635 3.461751455965909 L 1.082919034090909 3.063580291193182 Q 1.0869140625 3.0542585582386366 1.0949041193181817 3.0466680042613636 Q 1.1028941761363635 3.0390774502840907 1.1156782670454546 3.0390774502840907 Q 1.1289950284090908 3.0390774502840907 1.1360529119318181 3.0469343394886366 Q 1.1431107954545454 3.054791228693182 1.1471058238636362 3.064645632102273 L 1.3071732954545454 3.461751455965909 L 1.3545809659090908 3.461751455965909 Q 1.3647017045454546 3.461751455965909 1.3690962357954546 3.469075674715909 Q 1.3734907670454546 3.476399893465909 1.3734907670454546 3.486254296875 Q 1.3734907670454546 3.495043359375 1.3684303977272725 3.5018349076704545 Q 1.3633700284090908 3.508626455965909 1.3540482954545454 3.508626455965909 L 1.1822620738636362 3.508626455965909 Q 1.1729403409090908 3.508626455965909 1.1677468039772727 3.5018349076704545 Q 1.1625532670454546 3.495043359375 1.1625532670454546 3.486254296875 Q 1.1625532670454546 3.476399893465909 1.1670809659090908 3.469075674715909 Q 1.171608664772727 3.461751455965909 1.1817294034090908 3.461751455965909 L 1.2400568181818181 3.461751455965909 L 1.2006392045454546 3.357614382102273 L 1.0075461647727273 3.357614382102273 L 0.9657315340909091 3.461751455965909 L 1.0152698863636362 3.461751455965909 Q 1.025390625 3.461751455965909 1.0299183238636362 3.469075674715909 Q 1.0344460227272727 3.476399893465909 1.0344460227272727 3.486254296875 Q 1.0344460227272727 3.495043359375 1.0292524857954546 3.5018349076704545 Q 1.0240589488636362 3.508626455965909 1.0147372159090908 3.508626455965909 L 0.8701171874999999 3.508626455965909 Q 0.8607954545454545 3.508626455965909 0.8556019176136364 3.5018349076704545 Q 0.8504083806818181 3.495043359375 0.8504083806818181 3.486254296875 L 0.8504083806818181 3.486254296875 Z M 1.0240589488636362 3.316598757102273 L 1.185458096590909 3.316598757102273 L 1.107421875 3.1093899502840907 L 1.0240589488636362 3.316598757102273 Z M 1.3857421874999998 3.0745000355113636 Q 1.3857421874999998 3.0657109730113636 1.3909357244318181 3.058919424715909 Q 1.3961292613636362 3.0521278764204545 1.4054509943181817 3.0521278764204545 L 1.5287642045454544 3.0521278764204545 Q 1.5351562499999998 3.0521278764204545 1.5386186079545452 3.0542585582386366 Q 1.5420809659090908 3.0563892400568182 1.5444779829545452 3.061449609375 L 1.7785866477272725 3.3951676491477274 L 1.7785866477272725 3.0990028764204545 L 1.7306463068181817 3.0990028764204545 Q 1.720525568181818 3.0990028764204545 1.7159978693181817 3.0916786576704545 Q 1.7114701704545452 3.0843544389204545 1.7114701704545452 3.0745000355113636 Q 1.7114701704545452 3.0657109730113636 1.7166637073863633 3.058919424715909 Q 1.7218572443181817 3.0521278764204545 1.731178977272727 3.0521278764204545 L 1.8861860795454544 3.0521278764204545 Q 1.8955078124999998 3.0521278764204545 1.9005681818181817 3.058919424715909 Q 1.9056285511363633 3.0657109730113636 1.9056285511363633 3.0745000355113636 Q 1.9056285511363633 3.0843544389204545 1.9012340198863633 3.0916786576704545 Q 1.8968394886363633 3.0990028764204545 1.8867187499999998 3.0990028764204545 L 1.833718039772727 3.0990028764204545 L 1.833718039772727 3.4945106889204545 Q 1.833718039772727 3.5046314275568182 1.8266601562499998 3.511556143465909 Q 1.8196022727272725 3.518480859375 1.8097478693181817 3.518480859375 Q 1.8012251420454544 3.518480859375 1.795232599431818 3.514352663352273 Q 1.7892400568181817 3.5102244673295453 1.7852450284090908 3.5043650923295453 L 1.5141157670454544 3.1208423650568182 L 1.5141157670454544 3.461751455965909 L 1.5609907670454544 3.461751455965909 Q 1.571111505681818 3.461751455965909 1.5756392045454544 3.469075674715909 Q 1.5801669034090908 3.476399893465909 1.5801669034090908 3.486254296875 Q 1.5801669034090908 3.495043359375 1.5749733664772725 3.5018349076704545 Q 1.5697798295454544 3.508626455965909 1.560458096590909 3.508626455965909 L 1.4054509943181817 3.508626455965909 Q 1.3961292613636362 3.508626455965909 1.3909357244318181 3.5018349076704545 Q 1.3857421874999998 3.495043359375 1.3857421874999998 3.486254296875 Q 1.3857421874999998 3.476399893465909 1.3902698863636362 3.469075674715909 Q 1.3947975852272725 3.461751455965909 1.4049183238636362 3.461751455965909 L 1.457919034090909 3.461751455965909 L 1.457919034090909 3.0990028764204545 L 1.4049183238636362 3.0990028764204545 Q 1.3947975852272725 3.0990028764204545 1.3902698863636362 3.0916786576704545 Q 1.3857421874999998 3.0843544389204545 1.3857421874999998 3.0745000355113636 L 1.3857421874999998 3.0745000355113636 Z M 2.345348011363636 3.2779801491477274 Q 2.345348011363636 3.192220205965909 2.294078480113636 3.145611541193182 Q 2.242808948863636 3.0990028764204545 2.1565163352272725 3.0990028764204545 L 2.0803444602272725 3.0990028764204545 L 2.0803444602272725 3.461751455965909 Q 2.089666193181818 3.4622841264204545 2.0987215909090904 3.4625504616477274 Q 2.1077769886363633 3.462816796875 2.116832386363636 3.462816796875 Q 2.2177734374999996 3.462816796875 2.281560724431818 3.422067507102273 Q 2.345348011363636 3.3813182173295453 2.345348011363636 3.2779801491477274 L 2.345348011363636 3.2779801491477274 Z M 2.409801136363636 3.2779801491477274 Q 2.409801136363636 3.3903736150568182 2.335759943181818 3.4495000355113636 Q 2.2617187499999996 3.508626455965909 2.149058948863636 3.508626455965909 L 1.9471768465909087 3.508626455965909 Q 1.9378551136363633 3.508626455965909 1.9326615767045452 3.5018349076704545 Q 1.9274680397727268 3.495043359375 1.9274680397727268 3.486254296875 Q 1.9274680397727268 3.476399893465909 1.9319957386363633 3.469075674715909 Q 1.9365234374999996 3.461751455965909 1.9466441761363633 3.461751455965909 L 2.018022017045454 3.461751455965909 L 2.018022017045454 3.0990028764204545 L 1.9639559659090906 3.0990028764204545 Q 1.9538352272727268 3.0990028764204545 1.9494406960227268 3.0916786576704545 Q 1.9450461647727268 3.0843544389204545 1.9450461647727268 3.0745000355113636 Q 1.9450461647727268 3.0657109730113636 1.9502397017045452 3.058919424715909 Q 1.9554332386363633 3.0521278764204545 1.9647549715909087 3.0521278764204545 L 2.149058948863636 3.0521278764204545 Q 2.264115767045454 3.0521278764204545 2.336958451704545 3.1081914417613636 Q 2.409801136363636 3.164255007102273 2.409801136363636 3.2779801491477274 L 2.409801136363636 3.2779801491477274 Z M 2.452681107954545 3.486254296875 Q 2.452681107954545 3.476399893465909 2.457075639204545 3.469075674715909 Q 2.461470170454545 3.461751455965909 2.4715909090909087 3.461751455965909 L 2.536576704545454 3.461751455965909 L 2.536576704545454 3.0990028764204545 L 2.4715909090909087 3.0990028764204545 Q 2.461470170454545 3.0990028764204545 2.457075639204545 3.0916786576704545 Q 2.452681107954545 3.0843544389204545 2.452681107954545 3.0745000355113636 Q 2.452681107954545 3.0657109730113636 2.457741477272727 3.058919424715909 Q 2.4628018465909087 3.0521278764204545 2.472123579545454 3.0521278764204545 L 2.6630859374999996 3.0521278764204545 Q 2.672407670454545 3.0521278764204545 2.6776012073863633 3.058919424715909 Q 2.6827947443181817 3.0657109730113636 2.6827947443181817 3.0745000355113636 Q 2.6827947443181817 3.0843544389204545 2.678267045454545 3.0916786576704545 Q 2.6737393465909087 3.0990028764204545 2.663618607954545 3.0990028764204545 L 2.5988991477272725 3.0990028764204545 L 2.5988991477272725 3.461751455965909 L 2.663618607954545 3.461751455965909 Q 2.6737393465909087 3.461751455965909 2.678267045454545 3.469075674715909 Q 2.6827947443181817 3.476399893465909 2.6827947443181817 3.486254296875 Q 2.6827947443181817 3.495043359375 2.6776012073863633 3.5018349076704545 Q 2.672407670454545 3.508626455965909 2.6630859374999996 3.508626455965909 L 2.472123579545454 3.508626455965909 Q 2.4628018465909087 3.508626455965909 2.457741477272727 3.5018349076704545 Q 2.452681107954545 3.495043359375 2.452681107954545 3.486254296875 L 2.452681107954545 3.486254296875 Z M 2.713689630681818 3.0745000355113636 Q 2.713689630681818 3.0657109730113636 2.718883167613636 3.058919424715909 Q 2.724076704545454 3.0521278764204545 2.7333984374999996 3.0521278764204545 L 2.8567116477272725 3.0521278764204545 Q 2.863103693181818 3.0521278764204545 2.8665660511363633 3.0542585582386366 Q 2.8700284090909087 3.0563892400568182 2.8724254261363633 3.061449609375 L 3.1065340909090904 3.3951676491477274 L 3.1065340909090904 3.0990028764204545 L 3.0585937499999996 3.0990028764204545 Q 3.048473011363636 3.0990028764204545 3.0439453124999996 3.0916786576704545 Q 3.0394176136363633 3.0843544389204545 3.0394176136363633 3.0745000355113636 Q 3.0394176136363633 3.0657109730113636 3.044611150568181 3.058919424715909 Q 3.0498046874999996 3.0521278764204545 3.059126420454545 3.0521278764204545 L 3.2141335227272725 3.0521278764204545 Q 3.2234552556818175 3.0521278764204545 3.2285156249999996 3.058919424715909 Q 3.233575994318181 3.0657109730113636 3.233575994318181 3.0745000355113636 Q 3.233575994318181 3.0843544389204545 3.229181463068181 3.0916786576704545 Q 3.224786931818181 3.0990028764204545 3.2146661931818175 3.0990028764204545 L 3.161665482954545 3.0990028764204545 L 3.161665482954545 3.4945106889204545 Q 3.161665482954545 3.5046314275568182 3.1546075994318175 3.511556143465909 Q 3.1475497159090904 3.518480859375 3.1376953124999996 3.518480859375 Q 3.1291725852272725 3.518480859375 3.123180042613636 3.514352663352273 Q 3.1171874999999996 3.5102244673295453 3.1131924715909087 3.5043650923295453 L 2.8420632102272725 3.1208423650568182 L 2.8420632102272725 3.461751455965909 L 2.8889382102272725 3.461751455965909 Q 2.899058948863636 3.461751455965909 2.9035866477272725 3.469075674715909 Q 2.9081143465909087 3.476399893465909 2.9081143465909087 3.486254296875 Q 2.9081143465909087 3.495043359375 2.9029208096590904 3.5018349076704545 Q 2.8977272727272725 3.508626455965909 2.8884055397727266 3.508626455965909 L 2.7333984374999996 3.508626455965909 Q 2.724076704545454 3.508626455965909 2.718883167613636 3.5018349076704545 Q 2.713689630681818 3.495043359375 2.713689630681818 3.486254296875 Q 2.713689630681818 3.476399893465909 2.718217329545454 3.469075674715909 Q 2.7227450284090904 3.461751455965909 2.732865767045454 3.461751455965909 L 2.7858664772727266 3.461751455965909 L 2.7858664772727266 3.0990028764204545 L 2.732865767045454 3.0990028764204545 Q 2.7227450284090904 3.0990028764204545 2.718217329545454 3.0916786576704545 Q 2.713689630681818 3.0843544389204545 2.713689630681818 3.0745000355113636 L 2.713689630681818 3.0745000355113636 Z M 3.505237926136363 3.464947478693182 Q 3.567560369318181 3.464947478693182 3.616832386363636 3.442575319602273 Q 3.6661044034090904 3.4202031605113636 3.6661044034090904 3.3570817116477274 L 3.6661044034090904 3.3232571377840907 L 3.625621448863636 3.3232571377840907 Q 3.6162997159090904 3.3232571377840907 3.6112393465909083 3.3164655894886366 Q 3.6061789772727266 3.309674041193182 3.6061789772727266 3.300884978693182 Q 3.6061789772727266 3.2910305752840907 3.6105735085227266 3.2837063565340907 Q 3.6149680397727266 3.2763821377840907 3.6250887784090904 3.2763821377840907 L 3.735884232954545 3.2763821377840907 Q 3.7460049715909083 3.2763821377840907 3.750532670454545 3.2837063565340907 Q 3.755060369318181 3.2910305752840907 3.755060369318181 3.300884978693182 Q 3.755060369318181 3.309674041193182 3.749866832386363 3.3164655894886366 Q 3.744673295454545 3.3232571377840907 3.735351562499999 3.3232571377840907 L 3.7129794034090904 3.3232571377840907 L 3.7129794034090904 3.489450319602273 Q 3.7129794034090904 3.499571058238636 3.7056551846590904 3.504098757102273 Q 3.6983309659090904 3.508626455965909 3.688476562499999 3.508626455965909 Q 3.679687499999999 3.508626455965909 3.672895951704545 3.5034329190340907 Q 3.6661044034090904 3.498239382102273 3.6661044034090904 3.4889176491477274 L 3.6661044034090904 3.456158416193182 Q 3.642933238636363 3.487852308238636 3.6009854403409083 3.501568572443182 Q 3.5590376420454537 3.5152848366477274 3.505237926136363 3.5152848366477274 Q 3.400035511363636 3.5152848366477274 3.333185369318181 3.451497549715909 Q 3.2663352272727266 3.3877102627840907 3.2663352272727266 3.2822415127840907 Q 3.2663352272727266 3.1754410866477274 3.3351828835227266 3.110455291193182 Q 3.4040305397727266 3.0454694957386366 3.5105646306818175 3.0454694957386366 Q 3.558771306818181 3.0454694957386366 3.593927556818181 3.0597184303977274 Q 3.629083806818181 3.0739673650568182 3.656782670454545 3.0990028764204545 L 3.656782670454545 3.0713040127840907 Q 3.656782670454545 3.0611832741477274 3.664106889204545 3.0566555752840907 Q 3.671431107954545 3.0521278764204545 3.681285511363636 3.0521278764204545 Q 3.690074573863636 3.0521278764204545 3.6968661221590904 3.057321413352273 Q 3.703657670454545 3.0625149502840907 3.703657670454545 3.0718366832386366 L 3.703657670454545 3.1714460582386366 Q 3.703657670454545 3.180767791193182 3.6968661221590904 3.185961328125 Q 3.690074573863636 3.1911548650568182 3.681285511363636 3.1911548650568182 Q 3.672230113636363 3.1911548650568182 3.6677024147727266 3.1840969815340907 Q 3.6631747159090904 3.1770390980113636 3.6589133522727266 3.1703807173295453 Q 3.634410511363636 3.1360234730113636 3.5985884232954537 3.115915163352273 Q 3.562766335227272 3.095806853693182 3.5105646306818175 3.095806853693182 Q 3.4287997159090904 3.095806853693182 3.382457386363636 3.148141725852273 Q 3.336115056818181 3.2004765980113636 3.336115056818181 3.2822415127840907 Q 3.336115056818181 3.3629410866477274 3.380726207386363 3.4139442826704545 Q 3.425337357954545 3.464947478693182 3.505237926136363 3.464947478693182 L 3.505237926136363 3.464947478693182 Z M 4.1630859375 3.508626455965909 Q 4.172407670454545 3.508626455965909 4.177601207386363 3.5018349076704545 Q 4.182794744318182 3.495043359375 4.182794744318182 3.486254296875 Q 4.182794744318182 3.476399893465909 4.178267045454545 3.469075674715909 Q 4.173739346590908 3.461751455965909 4.163618607954545 3.461751455965909 L 4.082386363636363 3.461751455965909 L 4.082386363636363 3.2998196377840907 L 4.172940340909091 3.2998196377840907 L 4.1865234375 3.3493579900568182 Q 4.188654119318182 3.3568153764204545 4.1941139914772725 3.362142080965909 Q 4.199573863636363 3.3674687855113636 4.2078302556818175 3.3674687855113636 Q 4.216885653409091 3.3674687855113636 4.2216796875 3.3614762428977274 Q 4.226473721590908 3.3554837002840907 4.226473721590908 3.3461619673295453 L 4.222745028409091 3.2795781605113636 L 4.226473721590908 3.2151250355113636 Q 4.226473721590908 3.2058033025568182 4.2216796875 3.199810759943182 Q 4.216885653409091 3.1938182173295453 4.2078302556818175 3.1938182173295453 Q 4.199573863636363 3.1938182173295453 4.1941139914772725 3.199144921875 Q 4.188654119318182 3.2044716264204545 4.1865234375 3.2119290127840907 L 4.172940340909091 3.2614673650568182 L 4.082386363636363 3.2614673650568182 L 4.082386363636363 3.0990028764204545 L 4.3154296875 3.0990028764204545 L 4.3388671875 3.167184694602273 Q 4.342329545454545 3.1754410866477274 4.349254261363636 3.1814336292613636 Q 4.356178977272727 3.187426171875 4.3660333806818175 3.187426171875 Q 4.374556107954545 3.187426171875 4.3801491477272725 3.181966299715909 Q 4.3857421875 3.1765064275568182 4.3857421875 3.1677173650568182 Q 4.3857421875 3.1655866832386366 4.385342684659091 3.162923330965909 Q 4.384943181818182 3.160259978693182 4.384144176136363 3.157330291193182 L 4.363902698863636 3.0729020241477274 Q 4.360706676136363 3.063580291193182 4.356178977272727 3.0578540838068182 Q 4.351651278409091 3.0521278764204545 4.3420632102272725 3.0521278764204545 L 3.955877130681818 3.0521278764204545 Q 3.9465553977272725 3.0521278764204545 3.941361860795454 3.058919424715909 Q 3.936168323863636 3.0657109730113636 3.936168323863636 3.0745000355113636 Q 3.936168323863636 3.0843544389204545 3.9406960227272725 3.0916786576704545 Q 3.9452237215909087 3.0990028764204545 3.9553444602272725 3.0990028764204545 L 4.0203302556818175 3.0990028764204545 L 4.0203302556818175 3.461751455965909 L 3.9335049715909087 3.461751455965909 Q 3.923384232954545 3.461751455965909 3.9188565340909087 3.469075674715909 Q 3.9143288352272725 3.476399893465909 3.9143288352272725 3.486254296875 Q 3.9143288352272725 3.495043359375 3.9195223721590904 3.5018349076704545 Q 3.9247159090909087 3.508626455965909 3.934037642045454 3.508626455965909 L 4.1630859375 3.508626455965909 Z M 4.639293323863636 3.5152848366477274 Q 4.53515625 3.5152848366477274 4.468838778409091 3.451497549715909 Q 4.402521306818182 3.3877102627840907 4.402521306818182 3.2822415127840907 Q 4.402521306818182 3.1765064275568182 4.468838778409091 3.1109879616477274 Q 4.53515625 3.0454694957386366 4.639293323863636 3.0454694957386366 Q 4.744762073863636 3.0454694957386366 4.811479048295454 3.1109879616477274 Q 4.8781960227272725 3.1765064275568182 4.8781960227272725 3.2822415127840907 Q 4.8781960227272725 3.3877102627840907 4.811212713068182 3.451497549715909 Q 4.744229403409091 3.5152848366477274 4.639293323863636 3.5152848366477274 L 4.639293323863636 3.5152848366477274 Z M 4.636896306818182 3.095806853693182 Q 4.557528409090909 3.095806853693182 4.513316761363636 3.1486743963068182 Q 4.469105113636363 3.2015419389204545 4.469105113636363 3.2822415127840907 Q 4.469105113636363 3.3629410866477274 4.514515269886363 3.4139442826704545 Q 4.559925426136363 3.464947478693182 4.641424005681818 3.464947478693182 Q 4.721058238636363 3.464947478693182 4.7666015625 3.414610120738636 Q 4.812144886363636 3.3642727627840907 4.812144886363636 3.2827741832386366 Q 4.812144886363636 3.2004765980113636 4.7654030539772725 3.148141725852273 Q 4.718661221590909 3.095806853693182 4.636896306818182 3.095806853693182 L 4.636896306818182 3.095806853693182 Z M 5.1008522727272725 3.257738671875 Q 5.161576704545454 3.257738671875 5.207919034090909 3.2472184303977274 Q 5.254261363636363 3.2366981889204545 5.254261363636363 3.178637109375 Q 5.254261363636363 3.1195106889204545 5.202192826704545 3.1092567826704545 Q 5.1501242897727275 3.0990028764204545 5.090997869318182 3.0990028764204545 L 5.051846590909091 3.0990028764204545 L 5.051846590909091 3.257738671875 L 5.1008522727272725 3.257738671875 Z M 5.318980823863637 3.175973757102273 Q 5.318980823863637 3.230306143465909 5.283558238636363 3.254808984375 Q 5.248135653409091 3.2793118252840907 5.196466619318182 3.2883672230113636 Q 5.221768465909091 3.2995533025568182 5.240678267045454 3.3176640980113636 Q 5.259588068181818 3.335774893465909 5.271573153409091 3.3648054332386366 L 5.3115234375 3.461485120738636 L 5.350674715909091 3.461485120738636 Q 5.366654829545454 3.461485120738636 5.373046875 3.4670781605113636 Q 5.379438920454545 3.4726712002840907 5.379438920454545 3.486254296875 Q 5.379438920454545 3.501169069602273 5.371448863636363 3.5050309303977274 Q 5.363458806818182 3.508892791193182 5.350941051136363 3.508892791193182 L 5.2353515625 3.508626455965909 Q 5.226029829545454 3.508626455965909 5.220836292613637 3.5018349076704545 Q 5.215642755681818 3.495043359375 5.215642755681818 3.486254296875 Q 5.215642755681818 3.476399893465909 5.220170454545454 3.468942507102273 Q 5.224698153409091 3.461485120738636 5.234818892045454 3.461485120738636 L 5.247869318181818 3.461485120738636 L 5.2180397727272725 3.3861122514204545 Q 5.2060546875 3.3560163707386366 5.179021661931818 3.3305813565340907 Q 5.151988636363637 3.3051463423295453 5.1123046875 3.3051463423295453 L 5.051846590909091 3.3051463423295453 L 5.051846590909091 3.461485120738636 L 5.122159090909091 3.461485120738636 Q 5.132279829545454 3.461485120738636 5.136807528409091 3.468942507102273 Q 5.1413352272727275 3.476399893465909 5.1413352272727275 3.486254296875 Q 5.1413352272727275 3.495043359375 5.136141690340909 3.5018349076704545 Q 5.130948153409091 3.508626455965909 5.121626420454546 3.508626455965909 L 4.9306640625 3.508626455965909 Q 4.921342329545454 3.508626455965909 4.916148792613637 3.5018349076704545 Q 4.910955255681818 3.495043359375 4.910955255681818 3.486254296875 Q 4.910955255681818 3.476399893465909 4.915482954545454 3.468942507102273 Q 4.920010653409091 3.461485120738636 4.930131392045454 3.461485120738636 L 4.9895241477272725 3.461485120738636 L 4.9895241477272725 3.0990028764204545 L 4.941051136363637 3.0990028764204545 Q 4.9309303977272725 3.0990028764204545 4.926402698863637 3.0916786576704545 Q 4.921875 3.0843544389204545 4.921875 3.0745000355113636 Q 4.921875 3.0657109730113636 4.927068536931818 3.058919424715909 Q 4.932262073863637 3.0521278764204545 4.941583806818182 3.0521278764204545 L 5.099254261363637 3.0521278764204545 Q 5.1858132102272725 3.0521278764204545 5.252397017045454 3.0714371803977274 Q 5.318980823863637 3.090746484375 5.318980823863637 3.175973757102273 L 5.318980823863637 3.175973757102273 Z M 5.8268821022727275 3.335774893465909 Q 5.8268821022727275 3.3450966264204545 5.822088068181818 3.3510891690340907 Q 5.817294034090909 3.3570817116477274 5.808238636363637 3.3570817116477274 Q 5.799982244318182 3.3570817116477274 5.794522372159091 3.351755007102273 Q 5.7890625 3.3464283025568182 5.786931818181818 3.338970916193182 L 5.773348721590909 3.2894325639204545 L 5.684392755681818 3.2894325639204545 L 5.684392755681818 3.461751455965909 L 5.919566761363637 3.461751455965909 L 5.9504616477272725 3.373860830965909 Q 5.954190340909091 3.3656044389204545 5.960848721590909 3.3596118963068182 Q 5.9675071022727275 3.353619353693182 5.977894176136363 3.353619353693182 Q 5.986683238636363 3.353619353693182 5.992009943181818 3.3589460582386366 Q 5.9973366477272725 3.3642727627840907 5.9973366477272725 3.3733281605113636 Q 5.9973366477272725 3.3759915127840907 5.996937144886363 3.3786548650568182 Q 5.996537642045454 3.3813182173295453 5.995738636363637 3.383715234375 L 5.978959517045454 3.487852308238636 Q 5.9762961647727275 3.4974403764204545 5.971502130681818 3.503033416193182 Q 5.966708096590909 3.508626455965909 5.957120028409091 3.508626455965909 L 5.546963778409091 3.508626455965909 Q 5.537642045454545 3.508626455965909 5.5324485085227275 3.5018349076704545 Q 5.527254971590909 3.495043359375 5.527254971590909 3.486254296875 Q 5.527254971590909 3.476399893465909 5.531782670454545 3.469075674715909 Q 5.536310369318182 3.461751455965909 5.546431107954545 3.461751455965909 L 5.6223366477272725 3.461751455965909 L 5.6223366477272725 3.0990028764204545 L 5.573597301136363 3.0990028764204545 Q 5.5634765625 3.0990028764204545 5.55908203125 3.0916786576704545 Q 5.5546875 3.0843544389204545 5.5546875 3.0745000355113636 Q 5.5546875 3.0657109730113636 5.559747869318182 3.058919424715909 Q 5.564808238636363 3.0521278764204545 5.574129971590909 3.0521278764204545 L 5.946200284090909 3.0521278764204545 Q 5.9557883522727275 3.0521278764204545 5.960316051136363 3.0578540838068182 Q 5.96484375 3.063580291193182 5.9680397727272725 3.0729020241477274 L 5.993607954545454 3.157330291193182 Q 5.9944069602272725 3.160259978693182 5.994806463068182 3.162923330965909 Q 5.995205965909091 3.1655866832386366 5.995205965909091 3.1677173650568182 Q 5.995205965909091 3.1765064275568182 5.98974609375 3.181966299715909 Q 5.984286221590909 3.187426171875 5.975763494318182 3.187426171875 Q 5.965909090909091 3.187426171875 5.958851207386363 3.1814336292613636 Q 5.951793323863637 3.1754410866477274 5.948330965909091 3.167184694602273 L 5.919566761363637 3.0990028764204545 L 5.684392755681818 3.0990028764204545 L 5.684392755681818 3.251080291193182 L 5.773348721590909 3.251080291193182 L 5.786931818181818 3.2015419389204545 Q 5.7890625 3.1940845525568182 5.794522372159091 3.1887578480113636 Q 5.799982244318182 3.183431143465909 5.808238636363637 3.183431143465909 Q 5.817294034090909 3.183431143465909 5.822088068181818 3.1894236860795453 Q 5.8268821022727275 3.195416228693182 5.8268821022727275 3.2047379616477274 L 5.822887073863637 3.2691910866477274 L 5.8268821022727275 3.335774893465909 Z M 6.5302734375 3.0745000355113636 Q 6.5302734375 3.0843544389204545 6.525745738636363 3.0916786576704545 Q 6.5212180397727275 3.0990028764204545 6.511097301136363 3.0990028764204545 L 6.466885653409091 3.0990028764204545 L 6.3196022727272725 3.2702564275568182 L 6.484463778409091 3.461751455965909 L 6.516690340909091 3.461751455965909 Q 6.526811079545455 3.461751455965909 6.531338778409091 3.469075674715909 Q 6.5358664772727275 3.476399893465909 6.5358664772727275 3.486254296875 Q 6.5358664772727275 3.495043359375 6.530672940340909 3.5018349076704545 Q 6.525479403409091 3.508626455965909 6.516157670454546 3.508626455965909 L 6.336115056818182 3.508626455965909 Q 6.326793323863637 3.508626455965909 6.321599786931818 3.5018349076704545 Q 6.31640625 3.495043359375 6.31640625 3.486254296875 Q 6.31640625 3.476399893465909 6.320933948863637 3.469075674715909 Q 6.3254616477272725 3.461751455965909 6.335582386363637 3.461751455965909 L 6.409623579545455 3.461751455965909 L 6.282049005681818 3.3139354048295453 L 6.1550071022727275 3.461751455965909 L 6.221058238636364 3.461751455965909 Q 6.2311789772727275 3.461751455965909 6.2355735085227275 3.469075674715909 Q 6.2399680397727275 3.476399893465909 6.2399680397727275 3.486254296875 Q 6.2399680397727275 3.495043359375 6.234907670454546 3.5018349076704545 Q 6.229847301136364 3.508626455965909 6.220525568181818 3.508626455965909 L 6.045809659090909 3.508626455965909 Q 6.036487926136364 3.508626455965909 6.031427556818182 3.5018349076704545 Q 6.0263671875 3.495043359375 6.0263671875 3.486254296875 Q 6.0263671875 3.476399893465909 6.03076171875 3.469075674715909 Q 6.03515625 3.461751455965909 6.045276988636364 3.461751455965909 L 6.0940163352272725 3.461751455965909 L 6.251420454545455 3.278512819602273 L 6.097745028409091 3.0990028764204545 L 6.0617897727272725 3.0990028764204545 Q 6.051669034090909 3.0990028764204545 6.0471413352272725 3.0916786576704545 Q 6.042613636363637 3.0843544389204545 6.042613636363637 3.0745000355113636 Q 6.042613636363637 3.0657109730113636 6.047807173295455 3.058919424715909 Q 6.0530007102272725 3.0521278764204545 6.062322443181818 3.0521278764204545 L 6.220525568181818 3.0521278764204545 Q 6.229847301136364 3.0521278764204545 6.234907670454546 3.058919424715909 Q 6.2399680397727275 3.0657109730113636 6.2399680397727275 3.0745000355113636 Q 6.2399680397727275 3.0843544389204545 6.2355735085227275 3.0916786576704545 Q 6.2311789772727275 3.0990028764204545 6.221058238636364 3.0990028764204545 L 6.1725852272727275 3.0990028764204545 L 6.289240056818182 3.2348338423295453 L 6.405894886363637 3.0990028764204545 L 6.357421875 3.0990028764204545 Q 6.347301136363637 3.0990028764204545 6.3427734375 3.0916786576704545 Q 6.338245738636363 3.0843544389204545 6.338245738636363 3.0745000355113636 Q 6.338245738636363 3.0657109730113636 6.343439275568182 3.058919424715909 Q 6.3486328125 3.0521278764204545 6.357954545454546 3.0521278764204545 L 6.510564630681818 3.0521278764204545 Q 6.519886363636363 3.0521278764204545 6.525079900568182 3.058919424715909 Q 6.5302734375 3.0657109730113636 6.5302734375 3.0745000355113636 L 6.5302734375 3.0745000355113636 Z M 6.994762073863637 3.356549041193182 Q 6.994762073863637 3.420469495738636 6.941228693181818 3.467877166193182 Q 6.8876953125 3.5152848366477274 6.798473011363637 3.5152848366477274 Q 6.698064630681818 3.5152848366477274 6.6310813210227275 3.4491005326704545 Q 6.564098011363637 3.382916228693182 6.564098011363637 3.2718544389204545 Q 6.564098011363637 3.1703807173295453 6.632412997159091 3.1079251065340907 Q 6.700727982954546 3.0454694957386366 6.803533380681818 3.0454694957386366 Q 6.846946022727273 3.0454694957386366 6.878107244318182 3.059984765625 Q 6.909268465909091 3.0745000355113636 6.933238636363637 3.0990028764204545 L 6.933238636363637 3.0713040127840907 Q 6.933238636363637 3.0611832741477274 6.940562855113637 3.0566555752840907 Q 6.947887073863637 3.0521278764204545 6.9577414772727275 3.0521278764204545 Q 6.9665305397727275 3.0521278764204545 6.973322088068182 3.057321413352273 Q 6.980113636363637 3.0625149502840907 6.980113636363637 3.0718366832386366 L 6.980113636363637 3.1714460582386366 Q 6.980113636363637 3.180767791193182 6.973322088068182 3.185961328125 Q 6.9665305397727275 3.1911548650568182 6.9577414772727275 3.1911548650568182 Q 6.948686079545455 3.1911548650568182 6.944424715909091 3.1840969815340907 Q 6.9401633522727275 3.1770390980113636 6.935369318181818 3.1703807173295453 Q 6.915926846590909 3.1384204900568182 6.884632457386364 3.117113671875 Q 6.853338068181818 3.095806853693182 6.803533380681818 3.095806853693182 Q 6.724698153409091 3.095806853693182 6.6794211647727275 3.1465437144886366 Q 6.634144176136364 3.1972805752840907 6.634144176136364 3.2747841264204545 Q 6.634144176136364 3.362142080965909 6.678355823863637 3.4126126065340907 Q 6.722567471590909 3.463083132102273 6.803533380681818 3.463083132102273 Q 6.859730113636364 3.463083132102273 6.894620028409091 3.4325877485795453 Q 6.929509943181818 3.4020923650568182 6.939364346590909 3.351488671875 Q 6.941228693181818 3.341900603693182 6.949351917613637 3.337239737215909 Q 6.957475142045455 3.3325788707386366 6.9665305397727275 3.3325788707386366 Q 6.976917613636364 3.3325788707386366 6.98583984375 3.338704580965909 Q 6.994762073863637 3.344830291193182 6.994762073863637 3.356549041193182 L 6.994762073863637 3.356549041193182 Z M 7.335404829545455 3.335774893465909 Q 7.335404829545455 3.3450966264204545 7.330610795454546 3.3510891690340907 Q 7.325816761363637 3.3570817116477274 7.316761363636363 3.3570817116477274 Q 7.308504971590909 3.3570817116477274 7.303045099431818 3.351755007102273 Q 7.2975852272727275 3.3464283025568182 7.295454545454546 3.338970916193182 L 7.281871448863637 3.2894325639204545 L 7.192915482954546 3.2894325639204545 L 7.192915482954546 3.461751455965909 L 7.428089488636363 3.461751455965909 L 7.458984375 3.373860830965909 Q 7.462713068181818 3.3656044389204545 7.469371448863637 3.3596118963068182 Q 7.476029829545455 3.353619353693182 7.486416903409091 3.353619353693182 Q 7.495205965909091 3.353619353693182 7.500532670454546 3.3589460582386366 Q 7.505859375 3.3642727627840907 7.505859375 3.3733281605113636 Q 7.505859375 3.3759915127840907 7.505459872159091 3.3786548650568182 Q 7.505060369318182 3.3813182173295453 7.504261363636363 3.383715234375 L 7.487482244318182 3.487852308238636 Q 7.484818892045455 3.4974403764204545 7.480024857954546 3.503033416193182 Q 7.475230823863637 3.508626455965909 7.465642755681818 3.508626455965909 L 7.055486505681818 3.508626455965909 Q 7.0461647727272725 3.508626455965909 7.040971235795455 3.5018349076704545 Q 7.035777698863637 3.495043359375 7.035777698863637 3.486254296875 Q 7.035777698863637 3.476399893465909 7.0403053977272725 3.469075674715909 Q 7.044833096590909 3.461751455965909 7.0549538352272725 3.461751455965909 L 7.130859375 3.461751455965909 L 7.130859375 3.0990028764204545 L 7.082120028409091 3.0990028764204545 Q 7.0719992897727275 3.0990028764204545 7.0676047585227275 3.0916786576704545 Q 7.0632102272727275 3.0843544389204545 7.0632102272727275 3.0745000355113636 Q 7.0632102272727275 3.0657109730113636 7.068270596590909 3.058919424715909 Q 7.073330965909091 3.0521278764204545 7.082652698863637 3.0521278764204545 L 7.454723011363637 3.0521278764204545 Q 7.464311079545455 3.0521278764204545 7.468838778409091 3.0578540838068182 Q 7.4733664772727275 3.063580291193182 7.4765625 3.0729020241477274 L 7.502130681818182 3.157330291193182 Q 7.5029296875 3.160259978693182 7.503329190340909 3.162923330965909 Q 7.503728693181818 3.1655866832386366 7.503728693181818 3.1677173650568182 Q 7.503728693181818 3.1765064275568182 7.4982688210227275 3.181966299715909 Q 7.492808948863637 3.187426171875 7.484286221590909 3.187426171875 Q 7.474431818181818 3.187426171875 7.467373934659091 3.1814336292613636 Q 7.460316051136363 3.1754410866477274 7.456853693181818 3.167184694602273 L 7.428089488636363 3.0990028764204545 L 7.192915482954546 3.0990028764204545 L 7.192915482954546 3.251080291193182 L 7.281871448863637 3.251080291193182 L 7.295454545454546 3.2015419389204545 Q 7.2975852272727275 3.1940845525568182 7.303045099431818 3.1887578480113636 Q 7.308504971590909 3.183431143465909 7.316761363636363 3.183431143465909 Q 7.325816761363637 3.183431143465909 7.330610795454546 3.1894236860795453 Q 7.335404829545455 3.195416228693182 7.335404829545455 3.2047379616477274 L 7.331409801136363 3.2691910866477274 L 7.335404829545455 3.335774893465909 Z M 7.779651988636364 3.0745000355113636 Q 7.779651988636364 3.0843544389204545 7.7751242897727275 3.0916786576704545 Q 7.770596590909092 3.0990028764204545 7.7604758522727275 3.0990028764204545 L 7.701083096590909 3.0990028764204545 L 7.701083096590909 3.461751455965909 L 7.888583096590909 3.461751455965909 Q 7.911221590909092 3.461751455965909 7.927601207386364 3.4553594105113636 Q 7.943980823863637 3.4489673650568182 7.945845170454546 3.427926882102273 L 7.953568892045455 3.3530866832386366 Q 7.954634232954546 3.3442976207386366 7.960360440340909 3.3403025923295453 Q 7.966086647727273 3.3363075639204545 7.975408380681818 3.3363075639204545 Q 7.985262784090909 3.3363075639204545 7.992587002840909 3.341634268465909 Q 7.999911221590909 3.3469609730113636 7.999911221590909 3.357614382102273 L 7.987926136363637 3.4905156605113636 Q 7.987127130681818 3.497973046875 7.9831321022727275 3.5032997514204545 Q 7.979137073863637 3.508626455965909 7.9716796875 3.508626455965909 L 7.559126420454546 3.508626455965909 Q 7.5498046875 3.508626455965909 7.5446111505681825 3.5018349076704545 Q 7.539417613636364 3.495043359375 7.539417613636364 3.486254296875 Q 7.539417613636364 3.476399893465909 7.5439453125 3.469075674715909 Q 7.548473011363637 3.461751455965909 7.55859375 3.461751455965909 L 7.638760653409092 3.461751455965909 L 7.638760653409092 3.0990028764204545 L 7.575106534090909 3.0990028764204545 Q 7.564985795454546 3.0990028764204545 7.560458096590909 3.0916786576704545 Q 7.555930397727273 3.0843544389204545 7.555930397727273 3.0745000355113636 Q 7.555930397727273 3.0657109730113636 7.561123934659092 3.058919424715909 Q 7.566317471590909 3.0521278764204545 7.575639204545455 3.0521278764204545 L 7.7599431818181825 3.0521278764204545 Q 7.7692649147727275 3.0521278764204545 7.774458451704546 3.058919424715909 Q 7.779651988636364 3.0657109730113636 7.779651988636364 3.0745000355113636 L 7.779651988636364 3.0745000355113636 Z M 8.271839488636363 3.0745000355113636 Q 8.271839488636363 3.0843544389204545 8.267311789772727 3.0916786576704545 Q 8.26278409090909 3.0990028764204545 8.252663352272727 3.0990028764204545 L 8.193270596590908 3.0990028764204545 L 8.193270596590908 3.461751455965909 L 8.380770596590908 3.461751455965909 Q 8.40340909090909 3.461751455965909 8.419788707386363 3.4553594105113636 Q 8.436168323863637 3.4489673650568182 8.438032670454545 3.427926882102273 L 8.445756392045453 3.3530866832386366 Q 8.446821732954545 3.3442976207386366 8.452547940340908 3.3403025923295453 Q 8.458274147727272 3.3363075639204545 8.467595880681818 3.3363075639204545 Q 8.477450284090908 3.3363075639204545 8.484774502840908 3.341634268465909 Q 8.492098721590908 3.3469609730113636 8.492098721590908 3.357614382102273 L 8.480113636363637 3.4905156605113636 Q 8.479314630681818 3.497973046875 8.475319602272727 3.5032997514204545 Q 8.471324573863637 3.508626455965909 8.4638671875 3.508626455965909 L 8.051313920454545 3.508626455965909 Q 8.0419921875 3.508626455965909 8.036798650568182 3.5018349076704545 Q 8.031605113636363 3.495043359375 8.031605113636363 3.486254296875 Q 8.031605113636363 3.476399893465909 8.0361328125 3.469075674715909 Q 8.040660511363637 3.461751455965909 8.05078125 3.461751455965909 L 8.13094815340909 3.461751455965909 L 8.13094815340909 3.0990028764204545 L 8.067294034090908 3.0990028764204545 Q 8.057173295454545 3.0990028764204545 8.052645596590908 3.0916786576704545 Q 8.048117897727272 3.0843544389204545 8.048117897727272 3.0745000355113636 Q 8.048117897727272 3.0657109730113636 8.05331143465909 3.058919424715909 Q 8.058504971590908 3.0521278764204545 8.067826704545453 3.0521278764204545 L 8.252130681818182 3.0521278764204545 Q 8.261452414772727 3.0521278764204545 8.266645951704545 3.058919424715909 Q 8.271839488636363 3.0657109730113636 8.271839488636363 3.0745000355113636 L 8.271839488636363 3.0745000355113636 Z M 8.823419744318182 3.335774893465909 Q 8.823419744318182 3.3450966264204545 8.818625710227272 3.3510891690340907 Q 8.813831676136363 3.3570817116477274 8.80477627840909 3.3570817116477274 Q 8.796519886363637 3.3570817116477274 8.791060014204545 3.351755007102273 Q 8.785600142045453 3.3464283025568182 8.783469460227272 3.338970916193182 L 8.769886363636363 3.2894325639204545 L 8.680930397727272 3.2894325639204545 L 8.680930397727272 3.461751455965909 L 8.91610440340909 3.461751455965909 L 8.946999289772727 3.373860830965909 Q 8.950727982954545 3.3656044389204545 8.957386363636363 3.3596118963068182 Q 8.964044744318182 3.353619353693182 8.974431818181818 3.353619353693182 Q 8.983220880681818 3.353619353693182 8.988547585227272 3.3589460582386366 Q 8.993874289772727 3.3642727627840907 8.993874289772727 3.3733281605113636 Q 8.993874289772727 3.3759915127840907 8.993474786931818 3.3786548650568182 Q 8.993075284090908 3.3813182173295453 8.99227627840909 3.383715234375 L 8.975497159090908 3.487852308238636 Q 8.972833806818182 3.4974403764204545 8.968039772727272 3.503033416193182 Q 8.963245738636363 3.508626455965909 8.953657670454545 3.508626455965909 L 8.543501420454545 3.508626455965909 Q 8.5341796875 3.508626455965909 8.528986150568182 3.5018349076704545 Q 8.523792613636363 3.495043359375 8.523792613636363 3.486254296875 Q 8.523792613636363 3.476399893465909 8.5283203125 3.469075674715909 Q 8.532848011363637 3.461751455965909 8.54296875 3.461751455965909 L 8.618874289772727 3.461751455965909 L 8.618874289772727 3.0990028764204545 L 8.570134943181818 3.0990028764204545 Q 8.560014204545453 3.0990028764204545 8.555619673295453 3.0916786576704545 Q 8.551225142045453 3.0843544389204545 8.551225142045453 3.0745000355113636 Q 8.551225142045453 3.0657109730113636 8.556285511363637 3.058919424715909 Q 8.561345880681818 3.0521278764204545 8.570667613636363 3.0521278764204545 L 8.942737926136363 3.0521278764204545 Q 8.952325994318182 3.0521278764204545 8.956853693181818 3.0578540838068182 Q 8.961381392045453 3.063580291193182 8.964577414772727 3.0729020241477274 L 8.990145596590908 3.157330291193182 Q 8.990944602272727 3.160259978693182 8.991344105113637 3.162923330965909 Q 8.991743607954545 3.1655866832386366 8.991743607954545 3.1677173650568182 Q 8.991743607954545 3.1765064275568182 8.986283735795453 3.181966299715909 Q 8.980823863636363 3.187426171875 8.972301136363637 3.187426171875 Q 8.962446732954545 3.187426171875 8.955388849431818 3.1814336292613636 Q 8.94833096590909 3.1754410866477274 8.944868607954545 3.167184694602273 L 8.91610440340909 3.0990028764204545 L 8.680930397727272 3.0990028764204545 L 8.680930397727272 3.251080291193182 L 8.769886363636363 3.251080291193182 L 8.783469460227272 3.2015419389204545 Q 8.785600142045453 3.1940845525568182 8.791060014204545 3.1887578480113636 Q 8.796519886363637 3.183431143465909 8.80477627840909 3.183431143465909 Q 8.813831676136363 3.183431143465909 8.818625710227272 3.1894236860795453 Q 8.823419744318182 3.195416228693182 8.823419744318182 3.2047379616477274 L 8.81942471590909 3.2691910866477274 L 8.823419744318182 3.335774893465909 Z M 9.02743252840909 3.0745000355113636 Q 9.02743252840909 3.0657109730113636 9.032626065340908 3.058919424715909 Q 9.037819602272727 3.0521278764204545 9.047141335227272 3.0521278764204545 L 9.170454545454545 3.0521278764204545 Q 9.17684659090909 3.0521278764204545 9.180308948863635 3.0542585582386366 Q 9.18377130681818 3.0563892400568182 9.186168323863635 3.061449609375 L 9.420276988636363 3.3951676491477274 L 9.420276988636363 3.0990028764204545 L 9.372336647727272 3.0990028764204545 Q 9.362215909090908 3.0990028764204545 9.357688210227272 3.0916786576704545 Q 9.353160511363635 3.0843544389204545 9.353160511363635 3.0745000355113636 Q 9.353160511363635 3.0657109730113636 9.358354048295453 3.058919424715909 Q 9.363547585227272 3.0521278764204545 9.372869318181817 3.0521278764204545 L 9.527876420454545 3.0521278764204545 Q 9.53719815340909 3.0521278764204545 9.542258522727272 3.058919424715909 Q 9.547318892045453 3.0657109730113636 9.547318892045453 3.0745000355113636 Q 9.547318892045453 3.0843544389204545 9.542924360795453 3.0916786576704545 Q 9.538529829545453 3.0990028764204545 9.52840909090909 3.0990028764204545 L 9.475408380681817 3.0990028764204545 L 9.475408380681817 3.4945106889204545 Q 9.475408380681817 3.5046314275568182 9.46835049715909 3.511556143465909 Q 9.461292613636363 3.518480859375 9.451438210227272 3.518480859375 Q 9.442915482954545 3.518480859375 9.436922940340908 3.514352663352273 Q 9.430930397727272 3.5102244673295453 9.42693536931818 3.5043650923295453 L 9.155806107954545 3.1208423650568182 L 9.155806107954545 3.461751455965909 L 9.202681107954545 3.461751455965909 Q 9.212801846590908 3.461751455965909 9.217329545454545 3.469075674715909 Q 9.22185724431818 3.476399893465909 9.22185724431818 3.486254296875 Q 9.22185724431818 3.495043359375 9.216663707386363 3.5018349076704545 Q 9.211470170454545 3.508626455965909 9.202148437499998 3.508626455965909 L 9.047141335227272 3.508626455965909 Q 9.037819602272727 3.508626455965909 9.032626065340908 3.5018349076704545 Q 9.02743252840909 3.495043359375 9.02743252840909 3.486254296875 Q 9.02743252840909 3.476399893465909 9.031960227272727 3.469075674715909 Q 9.036487926136363 3.461751455965909 9.046608664772727 3.461751455965909 L 9.099609374999998 3.461751455965909 L 9.099609374999998 3.0990028764204545 L 9.046608664772727 3.0990028764204545 Q 9.036487926136363 3.0990028764204545 9.031960227272727 3.0916786576704545 Q 9.02743252840909 3.0843544389204545 9.02743252840909 3.0745000355113636 L 9.02743252840909 3.0745000355113636 Z M 10.010742187499998 3.356549041193182 Q 10.010742187499998 3.420469495738636 9.95720880681818 3.467877166193182 Q 9.903675426136362 3.5152848366477274 9.814453124999998 3.5152848366477274 Q 9.71404474431818 3.5152848366477274 9.64706143465909 3.4491005326704545 Q 9.580078124999998 3.382916228693182 9.580078124999998 3.2718544389204545 Q 9.580078124999998 3.1703807173295453 9.648393110795453 3.1079251065340907 Q 9.716708096590907 3.0454694957386366 9.81951349431818 3.0454694957386366 Q 9.862926136363635 3.0454694957386366 9.894087357954543 3.059984765625 Q 9.925248579545453 3.0745000355113636 9.949218749999998 3.0990028764204545 L 9.949218749999998 3.0713040127840907 Q 9.949218749999998 3.0611832741477274 9.956542968749998 3.0566555752840907 Q 9.963867187499998 3.0521278764204545 9.97372159090909 3.0521278764204545 Q 9.98251065340909 3.0521278764204545 9.989302201704543 3.057321413352273 Q 9.996093749999998 3.0625149502840907 9.996093749999998 3.0718366832386366 L 9.996093749999998 3.1714460582386366 Q 9.996093749999998 3.180767791193182 9.989302201704543 3.185961328125 Q 9.98251065340909 3.1911548650568182 9.97372159090909 3.1911548650568182 Q 9.964666193181817 3.1911548650568182 9.960404829545453 3.1840969815340907 Q 9.95614346590909 3.1770390980113636 9.95134943181818 3.1703807173295453 Q 9.931906960227272 3.1384204900568182 9.900612571022725 3.117113671875 Q 9.86931818181818 3.095806853693182 9.81951349431818 3.095806853693182 Q 9.740678267045453 3.095806853693182 9.69540127840909 3.1465437144886366 Q 9.650124289772725 3.1972805752840907 9.650124289772725 3.2747841264204545 Q 9.650124289772725 3.362142080965909 9.694335937499998 3.4126126065340907 Q 9.738547585227272 3.463083132102273 9.81951349431818 3.463083132102273 Q 9.875710227272725 3.463083132102273 9.910600142045453 3.4325877485795453 Q 9.94549005681818 3.4020923650568182 9.955344460227272 3.351488671875 Q 9.95720880681818 3.341900603693182 9.965332031249998 3.337239737215909 Q 9.973455255681817 3.3325788707386366 9.98251065340909 3.3325788707386366 Q 9.992897727272725 3.3325788707386366 10.001819957386362 3.338704580965909 Q 10.010742187499998 3.344830291193182 10.010742187499998 3.356549041193182 L 10.010742187499998 3.356549041193182 Z M 10.351384943181817 3.335774893465909 Q 10.351384943181817 3.3450966264204545 10.346590909090907 3.3510891690340907 Q 10.341796874999998 3.3570817116477274 10.332741477272725 3.3570817116477274 Q 10.324485085227272 3.3570817116477274 10.31902521306818 3.351755007102273 Q 10.313565340909088 3.3464283025568182 10.311434659090907 3.338970916193182 L 10.297851562499998 3.2894325639204545 L 10.208895596590907 3.2894325639204545 L 10.208895596590907 3.461751455965909 L 10.444069602272725 3.461751455965909 L 10.474964488636362 3.373860830965909 Q 10.47869318181818 3.3656044389204545 10.485351562499998 3.3596118963068182 Q 10.492009943181817 3.353619353693182 10.502397017045453 3.353619353693182 Q 10.511186079545453 3.353619353693182 10.516512784090907 3.3589460582386366 Q 10.521839488636362 3.3642727627840907 10.521839488636362 3.3733281605113636 Q 10.521839488636362 3.3759915127840907 10.521439985795453 3.3786548650568182 Q 10.521040482954543 3.3813182173295453 10.520241477272725 3.383715234375 L 10.503462357954543 3.487852308238636 Q 10.500799005681817 3.4974403764204545 10.496004971590907 3.503033416193182 Q 10.491210937499998 3.508626455965909 10.48162286931818 3.508626455965909 L 10.07146661931818 3.508626455965909 Q 10.062144886363635 3.508626455965909 10.056951349431817 3.5018349076704545 Q 10.051757812499998 3.495043359375 10.051757812499998 3.486254296875 Q 10.051757812499998 3.476399893465909 10.056285511363635 3.469075674715909 Q 10.060813210227272 3.461751455965909 10.070933948863635 3.461751455965909 L 10.146839488636362 3.461751455965909 L 10.146839488636362 3.0990028764204545 L 10.098100142045453 3.0990028764204545 Q 10.087979403409088 3.0990028764204545 10.083584872159088 3.0916786576704545 Q 10.079190340909088 3.0843544389204545 10.079190340909088 3.0745000355113636 Q 10.079190340909088 3.0657109730113636 10.084250710227272 3.058919424715909 Q 10.089311079545453 3.0521278764204545 10.098632812499998 3.0521278764204545 L 10.470703124999998 3.0521278764204545 Q 10.480291193181817 3.0521278764204545 10.484818892045453 3.0578540838068182 Q 10.489346590909088 3.063580291193182 10.492542613636362 3.0729020241477274 L 10.518110795454543 3.157330291193182 Q 10.518909801136362 3.160259978693182 10.519309303977272 3.162923330965909 Q 10.51970880681818 3.1655866832386366 10.51970880681818 3.1677173650568182 Q 10.51970880681818 3.1765064275568182 10.514248934659088 3.181966299715909 Q 10.508789062499998 3.187426171875 10.500266335227272 3.187426171875 Q 10.49041193181818 3.187426171875 10.483354048295453 3.1814336292613636 Q 10.476296164772725 3.1754410866477274 10.47283380681818 3.167184694602273 L 10.444069602272725 3.0990028764204545 L 10.208895596590907 3.0990028764204545 L 10.208895596590907 3.251080291193182 L 10.297851562499998 3.251080291193182 L 10.311434659090907 3.2015419389204545 Q 10.313565340909088 3.1940845525568182 10.31902521306818 3.1887578480113636 Q 10.324485085227272 3.183431143465909 10.332741477272725 3.183431143465909 Q 10.341796874999998 3.183431143465909 10.346590909090907 3.1894236860795453 Q 10.351384943181817 3.195416228693182 10.351384943181817 3.2047379616477274 L 10.347389914772725 3.2691910866477274 L 10.351384943181817 3.335774893465909 Z M 10.88698508522727 3.0875504616477274 Q 10.823064630681817 3.0875504616477274 10.802290482954543 3.111653799715909 Q 10.78151633522727 3.1357571377840907 10.78151633522727 3.165853018465909 Q 10.78151633522727 3.1916875355113636 10.79949396306818 3.2075344815340907 Q 10.817471590909088 3.2233814275568182 10.853160511363633 3.2321704900568182 L 10.929598721590907 3.251080291193182 Q 10.982066761363633 3.2641307173295453 11.015092329545451 3.2938270951704545 Q 11.04811789772727 3.3235234730113636 11.04811789772727 3.386644921875 Q 11.04811789772727 3.455625745738636 10.993519176136362 3.4857216264204545 Q 10.938920454545451 3.515817507102273 10.869140624999998 3.515817507102273 Q 10.840909090909088 3.515817507102273 10.811345880681817 3.508360120738636 Q 10.781782670454543 3.500902734375 10.756214488636362 3.483324609375 Q 10.75514914772727 3.492380007102273 10.750621448863633 3.503832421875 Q 10.746093749999998 3.5152848366477274 10.737038352272725 3.5152848366477274 Q 10.727450284090907 3.5152848366477274 10.721590909090907 3.511289808238636 Q 10.715731534090907 3.5072947798295453 10.714666193181817 3.498239382102273 L 10.69948508522727 3.366137109375 Q 10.69948508522727 3.3554837002840907 10.705877130681817 3.350290163352273 Q 10.712269176136362 3.3450966264204545 10.725053267045451 3.3450966264204545 Q 10.733043323863633 3.3450966264204545 10.739169034090907 3.3497574928977274 Q 10.74529474431818 3.354418359375 10.74636008522727 3.362408416193182 L 10.750621448863633 3.3994290127840907 Q 10.753284801136362 3.4241981889204545 10.78737571022727 3.4464371803977274 Q 10.82146661931818 3.468676171875 10.86248224431818 3.468676171875 Q 10.908025568181817 3.468676171875 10.950772372159088 3.4524297230113636 Q 10.993519176136362 3.4361832741477274 10.993519176136362 3.3863785866477274 Q 10.993519176136362 3.350423330965909 10.971812855113633 3.3363075639204545 Q 10.950106534090907 3.322191796875 10.920276988636362 3.313669069602273 L 10.832919034090907 3.288899893465909 Q 10.785245028409088 3.278246484375 10.753950639204543 3.2509471235795453 Q 10.722656249999998 3.2236477627840907 10.722656249999998 3.170114382102273 Q 10.722656249999998 3.1117869673295453 10.76833274147727 3.0786282315340907 Q 10.814009232954543 3.0454694957386366 10.87819602272727 3.0454694957386366 Q 10.905894886363633 3.0454694957386366 10.935058593749998 3.0523942116477274 Q 10.964222301136362 3.0593189275568182 10.983398437499998 3.075299041193182 Q 10.983398437499998 3.0641129616477274 10.990456321022725 3.0549243963068182 Q 10.997514204545451 3.045735830965909 11.008433948863633 3.045735830965909 Q 11.016424005681817 3.045735830965909 11.022549715909088 3.0505298650568182 Q 11.028675426136362 3.0553238991477274 11.029740767045451 3.063313955965909 L 11.031605113636362 3.169049041193182 Q 11.031605113636362 3.180501455965909 11.02468039772727 3.1856949928977274 Q 11.01775568181818 3.1908885298295453 11.00710227272727 3.1908885298295453 Q 10.997780539772725 3.1908885298295453 10.991787997159088 3.1868935014204545 Q 10.985795454545451 3.1828984730113636 10.984730113636362 3.1741094105113636 L 10.98366477272727 3.1432145241477274 Q 10.980202414772725 3.113118643465909 10.950639204545451 3.1003345525568182 Q 10.92107599431818 3.0875504616477274 10.88698508522727 3.0875504616477274 L 10.88698508522727 3.0875504616477274 Z M 11.097389914772725 3.486254296875 Q 11.097389914772725 3.476399893465909 11.101784446022725 3.469075674715909 Q 11.106178977272725 3.461751455965909 11.116299715909088 3.461751455965909 L 11.181285511363635 3.461751455965909 L 11.181285511363635 3.0990028764204545 L 11.116299715909088 3.0990028764204545 Q 11.106178977272725 3.0990028764204545 11.101784446022725 3.0916786576704545 Q 11.097389914772725 3.0843544389204545 11.097389914772725 3.0745000355113636 Q 11.097389914772725 3.0657109730113636 11.102450284090907 3.058919424715909 Q 11.107510653409088 3.0521278764204545 11.116832386363635 3.0521278764204545 L 11.30779474431818 3.0521278764204545 Q 11.317116477272725 3.0521278764204545 11.322310014204543 3.058919424715909 Q 11.327503551136362 3.0657109730113636 11.327503551136362 3.0745000355113636 Q 11.327503551136362 3.0843544389204545 11.322975852272725 3.0916786576704545 Q 11.318448153409088 3.0990028764204545 11.308327414772725 3.0990028764204545 L 11.243607954545451 3.0990028764204545 L 11.243607954545451 3.461751455965909 L 11.308327414772725 3.461751455965909 Q 11.318448153409088 3.461751455965909 11.322975852272725 3.469075674715909 Q 11.327503551136362 3.476399893465909 11.327503551136362 3.486254296875 Q 11.327503551136362 3.495043359375 11.322310014204543 3.5018349076704545 Q 11.317116477272725 3.508626455965909 11.30779474431818 3.508626455965909 L 11.116832386363635 3.508626455965909 Q 11.107510653409088 3.508626455965909 11.102450284090907 3.5018349076704545 Q 11.097389914772725 3.495043359375 11.097389914772725 3.486254296875 L 11.097389914772725 3.486254296875 Z M 11.358398437499998 3.0745000355113636 Q 11.358398437499998 3.0657109730113636 11.363591974431817 3.058919424715909 Q 11.368785511363635 3.0521278764204545 11.37810724431818 3.0521278764204545 L 11.501420454545453 3.0521278764204545 Q 11.507812499999998 3.0521278764204545 11.511274857954543 3.0542585582386366 Q 11.514737215909088 3.0563892400568182 11.517134232954543 3.061449609375 L 11.751242897727272 3.3951676491477274 L 11.751242897727272 3.0990028764204545 L 11.70330255681818 3.0990028764204545 Q 11.693181818181817 3.0990028764204545 11.68865411931818 3.0916786576704545 Q 11.684126420454543 3.0843544389204545 11.684126420454543 3.0745000355113636 Q 11.684126420454543 3.0657109730113636 11.689319957386362 3.058919424715909 Q 11.69451349431818 3.0521278764204545 11.703835227272725 3.0521278764204545 L 11.858842329545453 3.0521278764204545 Q 11.868164062499998 3.0521278764204545 11.87322443181818 3.058919424715909 Q 11.878284801136362 3.0657109730113636 11.878284801136362 3.0745000355113636 Q 11.878284801136362 3.0843544389204545 11.873890269886362 3.0916786576704545 Q 11.869495738636362 3.0990028764204545 11.859374999999998 3.0990028764204545 L 11.806374289772725 3.0990028764204545 L 11.806374289772725 3.4945106889204545 Q 11.806374289772725 3.5046314275568182 11.799316406249998 3.511556143465909 Q 11.792258522727272 3.518480859375 11.78240411931818 3.518480859375 Q 11.773881392045453 3.518480859375 11.767888849431817 3.514352663352273 Q 11.76189630681818 3.5102244673295453 11.757901278409088 3.5043650923295453 L 11.486772017045453 3.1208423650568182 L 11.486772017045453 3.461751455965909 L 11.533647017045453 3.461751455965909 Q 11.543767755681817 3.461751455965909 11.548295454545453 3.469075674715909 Q 11.552823153409088 3.476399893465909 11.552823153409088 3.486254296875 Q 11.552823153409088 3.495043359375 11.547629616477272 3.5018349076704545 Q 11.542436079545453 3.508626455965909 11.533114346590907 3.508626455965909 L 11.37810724431818 3.508626455965909 Q 11.368785511363635 3.508626455965909 11.363591974431817 3.5018349076704545 Q 11.358398437499998 3.495043359375 11.358398437499998 3.486254296875 Q 11.358398437499998 3.476399893465909 11.362926136363635 3.469075674715909 Q 11.367453835227272 3.461751455965909 11.377574573863635 3.461751455965909 L 11.430575284090907 3.461751455965909 L 11.430575284090907 3.0990028764204545 L 11.377574573863635 3.0990028764204545 Q 11.367453835227272 3.0990028764204545 11.362926136363635 3.0916786576704545 Q 11.358398437499998 3.0843544389204545 11.358398437499998 3.0745000355113636 L 11.358398437499998 3.0745000355113636 Z M 12.341708096590907 3.356549041193182 Q 12.341708096590907 3.420469495738636 12.288174715909088 3.467877166193182 Q 12.23464133522727 3.5152848366477274 12.145419034090907 3.5152848366477274 Q 12.045010653409088 3.5152848366477274 11.978027343749998 3.4491005326704545 Q 11.911044034090907 3.382916228693182 11.911044034090907 3.2718544389204545 Q 11.911044034090907 3.1703807173295453 11.979359019886362 3.1079251065340907 Q 12.047674005681815 3.0454694957386366 12.150479403409088 3.0454694957386366 Q 12.193892045454543 3.0454694957386366 12.225053267045451 3.059984765625 Q 12.256214488636362 3.0745000355113636 12.280184659090907 3.0990028764204545 L 12.280184659090907 3.0713040127840907 Q 12.280184659090907 3.0611832741477274 12.287508877840907 3.0566555752840907 Q 12.294833096590907 3.0521278764204545 12.304687499999998 3.0521278764204545 Q 12.313476562499998 3.0521278764204545 12.320268110795451 3.057321413352273 Q 12.327059659090907 3.0625149502840907 12.327059659090907 3.0718366832386366 L 12.327059659090907 3.1714460582386366 Q 12.327059659090907 3.180767791193182 12.320268110795451 3.185961328125 Q 12.313476562499998 3.1911548650568182 12.304687499999998 3.1911548650568182 Q 12.295632102272725 3.1911548650568182 12.291370738636362 3.1840969815340907 Q 12.287109374999998 3.1770390980113636 12.282315340909088 3.1703807173295453 Q 12.26287286931818 3.1384204900568182 12.231578480113633 3.117113671875 Q 12.200284090909088 3.095806853693182 12.150479403409088 3.095806853693182 Q 12.071644176136362 3.095806853693182 12.026367187499998 3.1465437144886366 Q 11.981090198863633 3.1972805752840907 11.981090198863633 3.2747841264204545 Q 11.981090198863633 3.362142080965909 12.025301846590907 3.4126126065340907 Q 12.06951349431818 3.463083132102273 12.150479403409088 3.463083132102273 Q 12.206676136363633 3.463083132102273 12.241566051136362 3.4325877485795453 Q 12.276455965909088 3.4020923650568182 12.28631036931818 3.351488671875 Q 12.288174715909088 3.341900603693182 12.296297940340907 3.337239737215909 Q 12.304421164772725 3.3325788707386366 12.313476562499998 3.3325788707386366 Q 12.323863636363633 3.3325788707386366 12.33278586647727 3.338704580965909 Q 12.341708096590907 3.344830291193182 12.341708096590907 3.356549041193182 L 12.341708096590907 3.356549041193182 Z M 12.682350852272725 3.335774893465909 Q 12.682350852272725 3.3450966264204545 12.677556818181815 3.3510891690340907 Q 12.672762784090907 3.3570817116477274 12.663707386363633 3.3570817116477274 Q 12.65545099431818 3.3570817116477274 12.649991122159088 3.351755007102273 Q 12.644531249999996 3.3464283025568182 12.642400568181815 3.338970916193182 L 12.628817471590907 3.2894325639204545 L 12.539861505681815 3.2894325639204545 L 12.539861505681815 3.461751455965909 L 12.775035511363633 3.461751455965909 L 12.80593039772727 3.373860830965909 Q 12.809659090909088 3.3656044389204545 12.816317471590907 3.3596118963068182 Q 12.822975852272725 3.353619353693182 12.833362926136362 3.353619353693182 Q 12.842151988636362 3.353619353693182 12.847478693181815 3.3589460582386366 Q 12.85280539772727 3.3642727627840907 12.85280539772727 3.3733281605113636 Q 12.85280539772727 3.3759915127840907 12.852405894886362 3.3786548650568182 Q 12.852006392045451 3.3813182173295453 12.851207386363633 3.383715234375 L 12.834428267045451 3.487852308238636 Q 12.831764914772725 3.4974403764204545 12.826970880681815 3.503033416193182 Q 12.822176846590907 3.508626455965909 12.812588778409088 3.508626455965909 L 12.402432528409088 3.508626455965909 Q 12.393110795454543 3.508626455965909 12.387917258522725 3.5018349076704545 Q 12.382723721590907 3.495043359375 12.382723721590907 3.486254296875 Q 12.382723721590907 3.476399893465909 12.387251420454543 3.469075674715909 Q 12.39177911931818 3.461751455965909 12.401899857954543 3.461751455965909 L 12.47780539772727 3.461751455965909 L 12.47780539772727 3.0990028764204545 L 12.429066051136362 3.0990028764204545 Q 12.418945312499996 3.0990028764204545 12.414550781249996 3.0916786576704545 Q 12.410156249999996 3.0843544389204545 12.410156249999996 3.0745000355113636 Q 12.410156249999996 3.0657109730113636 12.41521661931818 3.058919424715909 Q 12.420276988636362 3.0521278764204545 12.429598721590907 3.0521278764204545 L 12.801669034090907 3.0521278764204545 Q 12.811257102272725 3.0521278764204545 12.815784801136362 3.0578540838068182 Q 12.820312499999996 3.063580291193182 12.82350852272727 3.0729020241477274 L 12.849076704545451 3.157330291193182 Q 12.84987571022727 3.160259978693182 12.85027521306818 3.162923330965909 Q 12.850674715909088 3.1655866832386366 12.850674715909088 3.1677173650568182 Q 12.850674715909088 3.1765064275568182 12.845214843749996 3.181966299715909 Q 12.839754971590907 3.187426171875 12.83123224431818 3.187426171875 Q 12.821377840909088 3.187426171875 12.814319957386362 3.1814336292613636 Q 12.807262073863633 3.1754410866477274 12.803799715909088 3.167184694602273 L 12.775035511363633 3.0990028764204545 L 12.539861505681815 3.0990028764204545 L 12.539861505681815 3.251080291193182 L 12.628817471590907 3.251080291193182 L 12.642400568181815 3.2015419389204545 Q 12.644531249999996 3.1940845525568182 12.649991122159088 3.1887578480113636 Q 12.65545099431818 3.183431143465909 12.663707386363633 3.183431143465909 Q 12.672762784090907 3.183431143465909 12.677556818181815 3.1894236860795453 Q 12.682350852272725 3.195416228693182 12.682350852272725 3.2047379616477274 L 12.678355823863633 3.2691910866477274 L 12.682350852272725 3.335774893465909 Z M 13.304776278409088 3.1655866832386366 Q 13.304776278409088 3.253743643465909 13.214754971590907 3.3084755326704545 Q 13.124733664772725 3.363207421875 13.094637784090907 3.4487010298295453 L 13.264825994318178 3.4487010298295453 L 13.287997159090907 3.3962329900568182 Q 13.290926846590907 3.3879765980113636 13.297452059659088 3.382250390625 Q 13.30397727272727 3.3765241832386366 13.31383167613636 3.3765241832386366 Q 13.322088068181815 3.3765241832386366 13.327547940340907 3.3815845525568182 Q 13.333007812499996 3.386644921875 13.333007812499996 3.395700319602273 Q 13.333007812499996 3.398363671875 13.332475142045451 3.4006275213068182 Q 13.331942471590907 3.402891370738636 13.331676136363633 3.4052883877840907 L 13.314897017045451 3.479595916193182 Q 13.312499999999996 3.4886513139204545 13.307705965909088 3.493978018465909 Q 13.302911931818178 3.4993047230113636 13.293856534090907 3.4993047230113636 L 13.044833096590907 3.4993047230113636 L 13.042436079545451 3.4622841264204545 Q 13.042436079545451 3.4479020241477274 13.046031605113633 3.4332535866477274 Q 13.049627130681815 3.4186051491477274 13.056818181818178 3.4039567116477274 Q 13.08238636363636 3.3509560014204545 13.162553267045451 3.2821083451704545 Q 13.242720170454541 3.2132606889204545 13.242720170454541 3.163988671875 Q 13.242720170454541 3.1330937855113636 13.21755149147727 3.119244353693182 Q 13.192382812499996 3.105394921875 13.163085937499996 3.105394921875 Q 13.135387073863633 3.105394921875 13.118208451704541 3.113384978693182 Q 13.101029829545451 3.1213750355113636 13.086115056818178 3.1325611150568182 Q 13.082652698863633 3.134958132102273 13.078924005681815 3.1362898082386366 Q 13.075195312499996 3.137621484375 13.070933948863633 3.137621484375 Q 13.06081321022727 3.137621484375 13.053622159090907 3.1314957741477274 Q 13.046431107954541 3.1253700639204545 13.046431107954541 3.1147166548295453 Q 13.046431107954541 3.110455291193182 13.048961292613633 3.1055280894886366 Q 13.051491477272725 3.1006008877840907 13.056551846590907 3.095540518465909 Q 13.07359730113636 3.077962393465909 13.104891690340907 3.0666431463068182 Q 13.136186079545451 3.0553238991477274 13.171342329545451 3.054791228693182 L 13.17507102272727 3.054791228693182 Q 13.233398437499996 3.054791228693182 13.269087357954541 3.084887109375 Q 13.304776278409088 3.1149829900568182 13.304776278409088 3.1655866832386366 L 13.304776278409088 3.1655866832386366 Z M 13.383611505681815 3.2806435014204545 Q 13.383611505681815 3.1943508877840907 13.418501420454543 3.1199101917613636 Q 13.45339133522727 3.0454694957386366 13.541015624999996 3.0454694957386366 Q 13.628639914772725 3.0454694957386366 13.663529829545451 3.120043359375 Q 13.69841974431818 3.1946172230113636 13.69841974431818 3.2806435014204545 Q 13.69841974431818 3.3669361150568182 13.663529829545451 3.441110475852273 Q 13.628639914772725 3.5152848366477274 13.541015624999996 3.5152848366477274 Q 13.45339133522727 3.5152848366477274 13.418501420454543 3.441110475852273 Q 13.383611505681815 3.3669361150568182 13.383611505681815 3.2806435014204545 L 13.383611505681815 3.2806435014204545 Z M 13.440873579545451 3.2806435014204545 Q 13.440873579545451 3.3405689275568182 13.46071555397727 3.405821058238636 Q 13.480557528409088 3.4710731889204545 13.541015624999996 3.4710731889204545 Q 13.600941051136362 3.4710731889204545 13.621049360795451 3.4051552201704545 Q 13.641157670454543 3.3392372514204545 13.641157670454543 3.2806435014204545 Q 13.641157670454543 3.221517080965909 13.620649857954543 3.1561317826704545 Q 13.600142045454543 3.090746484375 13.541015624999996 3.090746484375 Q 13.481889204545451 3.090746484375 13.461381392045451 3.156930788352273 Q 13.440873579545451 3.2231150923295453 13.440873579545451 3.2806435014204545 L 13.440873579545451 3.2806435014204545 Z M 13.76500355113636 3.2806435014204545 Q 13.76500355113636 3.1943508877840907 13.799893465909088 3.1199101917613636 Q 13.834783380681815 3.0454694957386366 13.922407670454541 3.0454694957386366 Q 14.01003196022727 3.0454694957386366 14.044921874999996 3.120043359375 Q 14.079811789772725 3.1946172230113636 14.079811789772725 3.2806435014204545 Q 14.079811789772725 3.3669361150568182 14.044921874999996 3.441110475852273 Q 14.01003196022727 3.5152848366477274 13.922407670454541 3.5152848366477274 Q 13.834783380681815 3.5152848366477274 13.799893465909088 3.441110475852273 Q 13.76500355113636 3.3669361150568182 13.76500355113636 3.2806435014204545 L 13.76500355113636 3.2806435014204545 Z M 13.822265624999996 3.2806435014204545 Q 13.822265624999996 3.3405689275568182 13.842107599431815 3.405821058238636 Q 13.861949573863633 3.4710731889204545 13.922407670454541 3.4710731889204545 Q 13.982333096590907 3.4710731889204545 14.002441406249996 3.4051552201704545 Q 14.022549715909088 3.3392372514204545 14.022549715909088 3.2806435014204545 Q 14.022549715909088 3.221517080965909 14.002041903409088 3.1561317826704545 Q 13.981534090909088 3.090746484375 13.922407670454541 3.090746484375 Q 13.863281249999996 3.090746484375 13.842773437499996 3.156930788352273 Q 13.822265624999996 3.2231150923295453 13.822265624999996 3.2806435014204545 L 13.822265624999996 3.2806435014204545 Z M 14.156782670454541 3.486254296875 Q 14.156782670454541 3.4769325639204545 14.161576704545451 3.470141015625 Q 14.16637073863636 3.4633494673295453 14.176225142045451 3.4633494673295453 L 14.239879261363633 3.4633494673295453 L 14.239879261363633 3.1019325639204545 L 14.196200284090905 3.105394921875 Q 14.185546874999996 3.105394921875 14.17995383522727 3.098736541193182 Q 14.174360795454541 3.0920781605113636 14.174360795454541 3.081957421875 Q 14.174360795454541 3.0729020241477274 14.178888494318178 3.0663768110795453 Q 14.183416193181815 3.0598515980113636 14.19167258522727 3.0593189275568182 L 14.27956321022727 3.051595205965909 Q 14.288618607954541 3.051595205965909 14.292879971590905 3.054791228693182 Q 14.29714133522727 3.0579872514204545 14.29714133522727 3.0689069957386366 L 14.29714133522727 3.4633494673295453 L 14.343483664772723 3.4633494673295453 Q 14.353338068181815 3.4633494673295453 14.357865767045451 3.470274183238636 Q 14.362393465909086 3.4771988991477274 14.362393465909086 3.4870533025568182 Q 14.362393465909086 3.495309694602273 14.35719992897727 3.5019680752840907 Q 14.352006392045451 3.508626455965909 14.342950994318178 3.508626455965909 L 14.177556818181815 3.508626455965909 Q 14.166637073863633 3.508626455965909 14.161709872159086 3.502367578125 Q 14.156782670454541 3.4961087002840907 14.156782670454541 3.486254296875 L 14.156782670454541 3.486254296875 Z" fill="#3e7742" fill-rule="nonzero"></path></g><g clip-path="url(&quot;#SvgjsClipPath1018&quot;)"><g clip-path="url(&quot;#SvgjsClipPath1008&quot;)"><path d=" M -2.3540220914892314 2.565707066295568 L -2.3540220914892314 3.594216469993639 L -2.0109996547976854 3.594216469993639 L -2.0109996547976854 2.763745832998285 L -2.1842745771726197 2.663718618773121 Z M -2.3540220914892314 2.4523260929924855 L -2.184274577172617 2.550373639429818 L -2.184274577172617 1.396605255701675 L -1.9392456959787325 1.2551849877309416 L -1.9392456959787325 0.5264152840904638 L -2.5513049850365945 0.879785984218403 L -2.5513049850365945 1.9021404207943076 L -2.3540220914892314 2.0160073125544025 Z M -2.0857051183184927 1.4532777453733265 L -2.0857051183184927 2.6070641260813594 L -1.91244819292345 2.7070553463467446 L -1.91244819292345 3.594162479053972 L -1.6910853402840997 3.594162479053972 L -1.6910853402840997 1.2255079678933571 Z M -1.592587869349532 2.1252849744427063 L -1.592587869349532 3.5941624790539706 L -1.3445354955342337 3.5941624790539706 L -1.3445354955342337 2.26843295248282 Z M -2.9457267962922056 3.5941624790539706 L -2.9457267962922056 2.3495453408442475 L -2.9873178168165597 2.3735713089965667 L -3.3817936190118383 2.601467065335762 L -3.3817936190118383 3.454091984574941 L -3.9396999955825605 3.454091984574941 L -3.9396999955825605 0.05446248347141108 L -0.5400704944790329 0.05446248347141108 L -0.5400704944790329 3.4540919845749407 L -1.0979768710497542 3.4540919845749407 L -1.0979768710497542 3.147801383837614 L -1.2459480397002203 3.0623157293630676 L -1.2459480397002203 3.594252463953417 L -0.3999280120804438 3.594252463953417 L -0.3999280120804438 -0.08562600798750841 L -4.079896468920816 -0.08562600798750841 L -4.079896468920816 3.5942524639534175 Z M -2.452609547323247 3.5941624790539706 L -2.452609547323247 2.0725898173266075 L -2.8471753344179707 1.8448020428667478 L -2.8471753344179707 3.594342448852865 Z" fill="#3e7742" transform="matrix(1,0,0,1,0,0)" fill-rule="evenodd"></path></g></g></g><defs><clipPath id="SvgjsClipPath1018"><path d=" M -4.079896468920816 -0.08562600798750841 h 3.679896468920816 v 3.679878471940926 h -3.679896468920816 Z"></path></clipPath><clipPath id="SvgjsClipPath1008"><path d=" M -4.079896468920816 -0.08562600798750841 L -0.3999999999999999 -0.08562600798750841 L -0.3999999999999999 3.5942524639534175 L -4.079896468920816 3.5942524639534175 Z"></path></clipPath></defs></svg>