<svg width="469.98125px" height="101.6px" xmlns="http://www.w3.org/2000/svg" viewBox="15.009375000000006 24.200000000000003 469.98125 101.6" style="background: rgba(0, 0, 0, 0);" preserveAspectRatio="xMidYMid"><defs><filter id="editing-neon" x="-100%" y="-100%" width="300%" height="300%"><feFlood flood-color="#db7a0a" result="flood"></feFlood><feComposite operator="in" in="flood" in2="SourceAlpha" result="color"></feComposite><feFlood flood-color="#db7a0a" result="flood2"></feFlood><feComposite operator="in" in="flood2" in2="SourceAlpha" result="color2"></feComposite><feMorphology operator="dilate" radius="2" in="color" result="dilate"></feMorphology><feGaussianBlur stdDeviation="6" in="color" result="blur1"></feGaussianBlur><feGaussianBlur stdDeviation="2.5" in="color" result="blur2"></feGaussianBlur><feGaussianBlur stdDeviation="1" in="SourceAlpha" result="blur3"></feGaussianBlur><feGaussianBlur stdDeviation="6" in="dilate" result="blur4"></feGaussianBlur><feConvolveMatrix in="color2" result="conv" order="3,3" divisor="1" kernelMatrix="1 1 1  1 1 1  1 1 1"></feConvolveMatrix><feMerge><feMergeNode in="blur1"></feMergeNode><feMergeNode in="blur2"></feMergeNode><feMergeNode in="blur4"></feMergeNode><feMergeNode in="blur3"></feMergeNode><feMergeNode in="blur3"></feMergeNode><feMergeNode in="blur3"></feMergeNode><feMergeNode in="blur3"></feMergeNode><feMergeNode in="conv"></feMergeNode><feMergeNode in="SourceGraphic"></feMergeNode></feMerge></filter></defs><g filter="url(#editing-neon)"><g transform="translate(89.38999104499817, 98.52000045776367)"><path d="M21.25 0.77L21.25 0.77L21.25 0.77Q16.38 0.77 12.26-0.51L12.26-0.51L12.26-0.51Q8.13-1.79 5.63-4.67L5.63-4.67L5.63-4.67Q3.14-7.55 3.14-12.42L3.14-12.42L3.14-12.42Q3.14-12.74 3.17-13.15L3.17-13.15L3.17-13.15Q3.20-13.57 3.20-13.70L3.20-13.70L9.22-13.70L9.22-13.70Q9.22-13.63 9.15-13.15L9.15-13.15L9.15-13.15Q9.09-12.67 9.09-12.35L9.09-12.35L9.09-12.35Q9.09-8.32 12.42-6.37L12.42-6.37L12.42-6.37Q15.74-4.42 20.93-4.42L20.93-4.42L20.93-4.42Q26.94-4.42 30.14-6.30L30.14-6.30L30.14-6.30Q33.34-8.19 33.34-11.71L33.34-11.71L33.34-11.71Q33.34-14.14 31.78-15.65L31.78-15.65L31.78-15.65Q30.21-17.15 27.62-18.08L27.62-18.08L27.62-18.08Q25.02-19.01 21.89-19.78L21.89-19.78L21.89-19.78Q18.75-20.54 15.65-21.44L15.65-21.44L15.65-21.44Q12.54-22.34 9.95-23.71L9.95-23.71L9.95-23.71Q7.36-25.09 5.79-27.30L5.79-27.30L5.79-27.30Q4.22-29.50 4.22-32.90L4.22-32.90L4.22-32.90Q4.22-36.93 6.53-39.52L6.53-39.52L6.53-39.52Q8.83-42.11 12.74-43.39L12.74-43.39L12.74-43.39Q16.64-44.67 21.31-44.67L21.31-44.67L21.31-44.67Q25.98-44.67 29.79-43.42L29.79-43.42L29.79-43.42Q33.60-42.18 35.87-39.46L35.87-39.46L35.87-39.46Q38.14-36.74 38.14-32.32L38.14-32.32L38.14-31.55L32.19-31.55L32.19-32.51L32.19-32.51Q32.19-35.84 29.15-37.66L29.15-37.66L29.15-37.66Q26.11-39.49 21.50-39.49L21.50-39.49L21.50-39.49Q16.64-39.49 13.50-37.98L13.50-37.98L13.50-37.98Q10.37-36.48 10.37-33.34L10.37-33.34L10.37-33.34Q10.37-31.10 11.94-29.70L11.94-29.70L11.94-29.70Q13.50-28.29 16.10-27.36L16.10-27.36L16.10-27.36Q18.69-26.43 21.79-25.70L21.79-25.70L21.79-25.70Q24.90-24.96 28-24.06L28-24.06L28-24.06Q31.10-23.17 33.70-21.79L33.70-21.79L33.70-21.79Q36.29-20.42 37.86-18.21L37.86-18.21L37.86-18.21Q39.42-16 39.42-12.67L39.42-12.67L39.42-12.67Q39.42-7.74 37.06-4.80L37.06-4.80L37.06-4.80Q34.69-1.86 30.59-0.54L30.59-0.54L30.59-0.54Q26.50 0.77 21.25 0.77ZM52.61 0L46.98 0L46.98-33.66L52.61-33.66L52.61 0ZM52.61-40L46.98-40L46.98-46.27L52.61-46.27L52.61-40ZM66.82 0L61.18 0L61.18-33.66L65.47-33.66L66.11-29.12L66.56-29.12L66.56-29.12Q68.54-31.94 71.49-33.18L71.49-33.18L71.49-33.18Q74.43-34.43 77.89-34.43L77.89-34.43L77.89-34.43Q81.09-34.43 83.46-33.31L83.46-33.31L83.46-33.31Q85.82-32.19 87.10-29.66L87.10-29.66L87.10-29.66Q88.38-27.14 88.38-22.98L88.38-22.98L88.38 0L82.75 0L82.75-22.59L82.75-22.59Q82.75-26.88 80.83-28.32L80.83-28.32L80.83-28.32Q78.91-29.76 75.78-29.76L75.78-29.76L75.78-29.76Q73.41-29.76 71.36-28.58L71.36-28.58L71.36-28.58Q69.31-27.39 68.06-25.22L68.06-25.22L68.06-25.22Q66.82-23.04 66.82-19.90L66.82-19.90L66.82 0ZM109.57 0.77L109.57 0.77L109.57 0.77Q101.89 0.77 98.30-3.49L98.30-3.49L98.30-3.49Q94.72-7.74 94.72-16.83L94.72-16.83L94.72-16.83Q94.72-25.92 98.34-30.18L98.34-30.18L98.34-30.18Q101.95-34.43 109.57-34.43L109.57-34.43L109.57-34.43Q116.61-34.43 119.74-31.04L119.74-31.04L119.74-31.04Q122.88-27.65 122.88-21.18L122.88-21.18L117.12-21.18L117.12-21.18Q117.12-25.54 115.55-27.65L115.55-27.65L115.55-27.65Q113.98-29.76 109.57-29.76L109.57-29.76L109.57-29.76Q104.96-29.76 102.75-26.78L102.75-26.78L102.75-26.78Q100.54-23.81 100.54-16.83L100.54-16.83L100.54-16.58L100.54-16.58Q100.54-9.73 102.69-6.82L102.69-6.82L102.69-6.82Q104.83-3.90 109.57-3.90L109.57-3.90L109.57-3.90Q113.86-3.90 115.65-6.11L115.65-6.11L115.65-6.11Q117.44-8.32 117.44-12.48L117.44-12.48L122.88-12.48L122.88-12.48Q122.88-8.96 121.57-5.95L121.57-5.95L121.57-5.95Q120.26-2.94 117.31-1.09L117.31-1.09L117.31-1.09Q114.37 0.77 109.57 0.77ZM143.04 0.77L143.04 0.77L143.04 0.77Q134.91 0.77 130.94-3.49L130.94-3.49L130.94-3.49Q126.98-7.74 126.98-16.83L126.98-16.83L126.98-16.83Q126.98-25.92 130.98-30.18L130.98-30.18L130.98-30.18Q134.98-34.43 143.04-34.43L143.04-34.43L143.04-34.43Q150.14-34.43 153.86-30.66L153.86-30.66L153.86-30.66Q157.57-26.88 157.57-18.11L157.57-18.11L157.57-15.30L132.80-15.30L132.80-15.30Q133.06-9.47 135.52-6.69L135.52-6.69L135.52-6.69Q137.98-3.90 143.04-3.90L143.04-3.90L143.04-3.90Q145.47-3.90 147.55-4.67L147.55-4.67L147.55-4.67Q149.63-5.44 150.85-7.07L150.85-7.07L150.85-7.07Q152.06-8.70 152.06-11.46L152.06-11.46L157.57-11.46L157.57-11.46Q157.57-7.36 155.62-4.64L155.62-4.64L155.62-4.64Q153.66-1.92 150.40-0.58L150.40-0.58L150.40-0.58Q147.14 0.77 143.04 0.77ZM132.93-19.97L132.93-19.97L151.68-19.97L151.68-19.97Q151.68-25.28 149.31-27.52L149.31-27.52L149.31-27.52Q146.94-29.76 143.04-29.76L143.04-29.76L143.04-29.76Q138.30-29.76 135.87-27.49L135.87-27.49L135.87-27.49Q133.44-25.22 132.93-19.97ZM210.50 0L180.35 0L180.35-1.86L180.35-1.86Q180.35-5.31 182.02-8.10L182.02-8.10L182.02-8.10Q183.68-10.88 186.34-13.25L186.34-13.25L186.34-13.25Q188.99-15.62 192.00-17.73L192.00-17.73L192.00-17.73Q195.01-19.84 197.73-21.98L197.73-21.98L197.73-21.98Q200.45-24.13 202.24-26.50L202.24-26.50L202.24-26.50Q203.26-27.84 203.84-29.28L203.84-29.28L203.84-29.28Q204.42-30.72 204.42-32.38L204.42-32.38L204.42-32.38Q204.42-33.98 203.74-35.71L203.74-35.71L203.74-35.71Q203.07-37.44 201.25-38.62L201.25-38.62L201.25-38.62Q199.42-39.81 195.97-39.81L195.97-39.81L195.97-39.81Q192.58-39.81 190.53-38.66L190.53-38.66L190.53-38.66Q188.48-37.50 187.58-35.58L187.58-35.58L187.58-35.58Q186.69-33.66 186.69-31.42L186.69-31.42L186.69-28.80L181.06-28.80L181.06-28.80Q181.06-28.80 180.96-29.50L180.96-29.50L180.96-29.50Q180.86-30.21 180.86-31.36L180.86-31.36L180.86-31.36Q180.86-36.10 183.01-39.01L183.01-39.01L183.01-39.01Q185.15-41.92 188.67-43.30L188.67-43.30L188.67-43.30Q192.19-44.67 196.29-44.67L196.29-44.67L196.29-44.67Q198.66-44.67 200.74-44.19L200.74-44.19L200.74-44.19Q202.82-43.71 204.58-42.75L204.58-42.75L204.58-42.75Q206.34-41.79 207.58-40.29L207.58-40.29L207.58-40.29Q208.83-38.78 209.54-36.67L209.54-36.67L209.54-36.67Q210.24-34.56 210.24-31.87L210.24-31.87L210.24-31.87Q210.24-28.54 208.61-25.76L208.61-25.76L208.61-25.76Q206.98-22.98 204.35-20.58L204.35-20.58L204.35-20.58Q201.73-18.18 198.75-16.03L198.75-16.03L198.75-16.03Q195.78-13.89 193.02-11.81L193.02-11.81L193.02-11.81Q190.27-9.73 188.42-7.62L188.42-7.62L188.42-7.62Q187.90-7.04 187.55-6.46L187.55-6.46L187.55-6.46Q187.20-5.89 186.94-5.38L186.94-5.38L210.50-5.38L210.50 0ZM231.23 0.77L231.23 0.77L231.23 0.77Q227.58 0.77 224.74-0.29L224.74-0.29L224.74-0.29Q221.89-1.34 219.90-3.90L219.90-3.90L219.90-3.90Q217.92-6.46 216.86-10.85L216.86-10.85L216.86-10.85Q215.81-15.23 215.81-21.95L215.81-21.95L215.81-21.95Q215.81-28.67 216.86-33.06L216.86-33.06L216.86-33.06Q217.92-37.44 219.90-40L219.90-40L219.90-40Q221.89-42.56 224.74-43.62L224.74-43.62L224.74-43.62Q227.58-44.67 231.23-44.67L231.23-44.67L231.23-44.67Q234.82-44.67 237.66-43.62L237.66-43.62L237.66-43.62Q240.51-42.56 242.53-40L242.53-40L242.53-40Q244.54-37.44 245.60-33.06L245.60-33.06L245.60-33.06Q246.66-28.67 246.66-21.95L246.66-21.95L246.66-21.95Q246.66-15.23 245.60-10.85L245.60-10.85L245.60-10.85Q244.54-6.46 242.53-3.90L242.53-3.90L242.53-3.90Q240.51-1.34 237.66-0.29L237.66-0.29L237.66-0.29Q234.82 0.77 231.23 0.77ZM231.23-3.90L231.23-3.90L231.23-3.90Q235.14-3.90 237.22-5.95L237.22-5.95L237.22-5.95Q239.30-8 240.06-11.90L240.06-11.90L240.06-11.90Q240.83-15.81 240.83-21.31L240.83-21.31L240.83-21.95L240.83-21.95Q240.83-27.65 240.06-31.68L240.06-31.68L240.06-31.68Q239.30-35.71 237.22-37.86L237.22-37.86L237.22-37.86Q235.14-40 231.23-40L231.23-40L231.23-40Q227.33-40 225.25-37.95L225.25-37.95L225.25-37.95Q223.17-35.90 222.40-32L222.40-32L222.40-32Q221.63-28.10 221.63-22.59L221.63-22.59L221.63-21.95L221.63-21.95Q221.63-16.26 222.40-12.22L222.40-12.22L222.40-12.22Q223.17-8.19 225.25-6.05L225.25-6.05L225.25-6.05Q227.33-3.90 231.23-3.90ZM266.82 0.77L266.82 0.77L266.82 0.77Q263.17 0.77 260.32-0.29L260.32-0.29L260.32-0.29Q257.47-1.34 255.49-3.90L255.49-3.90L255.49-3.90Q253.50-6.46 252.45-10.85L252.45-10.85L252.45-10.85Q251.39-15.23 251.39-21.95L251.39-21.95L251.39-21.95Q251.39-28.67 252.45-33.06L252.45-33.06L252.45-33.06Q253.50-37.44 255.49-40L255.49-40L255.49-40Q257.47-42.56 260.32-43.62L260.32-43.62L260.32-43.62Q263.17-44.67 266.82-44.67L266.82-44.67L266.82-44.67Q270.40-44.67 273.25-43.62L273.25-43.62L273.25-43.62Q276.10-42.56 278.11-40L278.11-40L278.11-40Q280.13-37.44 281.18-33.06L281.18-33.06L281.18-33.06Q282.24-28.67 282.24-21.95L282.24-21.95L282.24-21.95Q282.24-15.23 281.18-10.85L281.18-10.85L281.18-10.85Q280.13-6.46 278.11-3.90L278.11-3.90L278.11-3.90Q276.10-1.34 273.25-0.29L273.25-0.29L273.25-0.29Q270.40 0.77 266.82 0.77ZM266.82-3.90L266.82-3.90L266.82-3.90Q270.72-3.90 272.80-5.95L272.80-5.95L272.80-5.95Q274.88-8 275.65-11.90L275.65-11.90L275.65-11.90Q276.42-15.81 276.42-21.31L276.42-21.31L276.42-21.95L276.42-21.95Q276.42-27.65 275.65-31.68L275.65-31.68L275.65-31.68Q274.88-35.71 272.80-37.86L272.80-37.86L272.80-37.86Q270.72-40 266.82-40L266.82-40L266.82-40Q262.91-40 260.83-37.95L260.83-37.95L260.83-37.95Q258.75-35.90 257.98-32L257.98-32L257.98-32Q257.22-28.10 257.22-22.59L257.22-22.59L257.22-21.95L257.22-21.95Q257.22-16.26 257.98-12.22L257.98-12.22L257.98-12.22Q258.75-8.19 260.83-6.05L260.83-6.05L260.83-6.05Q262.91-3.90 266.82-3.90ZM318.08 0L290.62 0L290.62-4.67L301.95-4.67L301.95-35.90L290.56-35.90L290.56-39.23L290.56-39.23Q292.48-39.42 295.10-40.06L295.10-40.06L295.10-40.06Q297.73-40.70 300.45-41.70L300.45-41.70L300.45-41.70Q303.17-42.69 305.41-43.90L305.41-43.90L307.58-43.90L307.58-4.67L318.08-4.67L318.08 0Z" fill="none" stroke="#ffffa6" stroke-width="0.5"></path></g></g><style>text {
  font-size: 64px;
  font-family: Arial Black;
  dominant-baseline: central;
  text-anchor: middle;
}</style></svg>