<svg width="1030.925px" height="101.6px" xmlns="http://www.w3.org/2000/svg" viewBox="-265.4625 24.200000000000003 1030.925 101.6" style="background: rgba(0, 0, 0, 0);" preserveAspectRatio="xMidYMid"><defs><filter id="editing-neon" x="-100%" y="-100%" width="300%" height="300%"><feFlood flood-color="#db7a0a" result="flood"></feFlood><feComposite operator="in" in="flood" in2="SourceAlpha" result="color"></feComposite><feFlood flood-color="#db7a0a" result="flood2"></feFlood><feComposite operator="in" in="flood2" in2="SourceAlpha" result="color2"></feComposite><feMorphology operator="dilate" radius="2" in="color" result="dilate"></feMorphology><feGaussianBlur stdDeviation="6" in="color" result="blur1"></feGaussianBlur><feGaussianBlur stdDeviation="2.5" in="color" result="blur2"></feGaussianBlur><feGaussianBlur stdDeviation="1" in="SourceAlpha" result="blur3"></feGaussianBlur><feGaussianBlur stdDeviation="6" in="dilate" result="blur4"></feGaussianBlur><feConvolveMatrix in="color2" result="conv" order="3,3" divisor="1" kernelMatrix="1 1 1  1 1 1  1 1 1"></feConvolveMatrix><feMerge><feMergeNode in="blur1"></feMergeNode><feMergeNode in="blur2"></feMergeNode><feMergeNode in="blur4"></feMergeNode><feMergeNode in="blur3"></feMergeNode><feMergeNode in="blur3"></feMergeNode><feMergeNode in="blur3"></feMergeNode><feMergeNode in="blur3"></feMergeNode><feMergeNode in="conv"></feMergeNode><feMergeNode in="SourceGraphic"></feMergeNode></feMerge></filter></defs><g filter="url(#editing-neon)"><g transform="translate(-97.14001536369324, 103.95999908447266)"><path d="M21.25 0.77L21.25 0.77L21.25 0.77Q16.38 0.77 12.26-0.51L12.26-0.51L12.26-0.51Q8.13-1.79 5.63-4.67L5.63-4.67L5.63-4.67Q3.14-7.55 3.14-12.42L3.14-12.42L3.14-12.42Q3.14-12.74 3.17-13.15L3.17-13.15L3.17-13.15Q3.20-13.57 3.20-13.70L3.20-13.70L9.22-13.70L9.22-13.70Q9.22-13.63 9.15-13.15L9.15-13.15L9.15-13.15Q9.09-12.67 9.09-12.35L9.09-12.35L9.09-12.35Q9.09-8.32 12.42-6.37L12.42-6.37L12.42-6.37Q15.74-4.42 20.93-4.42L20.93-4.42L20.93-4.42Q26.94-4.42 30.14-6.30L30.14-6.30L30.14-6.30Q33.34-8.19 33.34-11.71L33.34-11.71L33.34-11.71Q33.34-14.14 31.78-15.65L31.78-15.65L31.78-15.65Q30.21-17.15 27.62-18.08L27.62-18.08L27.62-18.08Q25.02-19.01 21.89-19.78L21.89-19.78L21.89-19.78Q18.75-20.54 15.65-21.44L15.65-21.44L15.65-21.44Q12.54-22.34 9.95-23.71L9.95-23.71L9.95-23.71Q7.36-25.09 5.79-27.30L5.79-27.30L5.79-27.30Q4.22-29.50 4.22-32.90L4.22-32.90L4.22-32.90Q4.22-36.93 6.53-39.52L6.53-39.52L6.53-39.52Q8.83-42.11 12.74-43.39L12.74-43.39L12.74-43.39Q16.64-44.67 21.31-44.67L21.31-44.67L21.31-44.67Q25.98-44.67 29.79-43.42L29.79-43.42L29.79-43.42Q33.60-42.18 35.87-39.46L35.87-39.46L35.87-39.46Q38.14-36.74 38.14-32.32L38.14-32.32L38.14-31.55L32.19-31.55L32.19-32.51L32.19-32.51Q32.19-35.84 29.15-37.66L29.15-37.66L29.15-37.66Q26.11-39.49 21.50-39.49L21.50-39.49L21.50-39.49Q16.64-39.49 13.50-37.98L13.50-37.98L13.50-37.98Q10.37-36.48 10.37-33.34L10.37-33.34L10.37-33.34Q10.37-31.10 11.94-29.70L11.94-29.70L11.94-29.70Q13.50-28.29 16.10-27.36L16.10-27.36L16.10-27.36Q18.69-26.43 21.79-25.70L21.79-25.70L21.79-25.70Q24.90-24.96 28-24.06L28-24.06L28-24.06Q31.10-23.17 33.70-21.79L33.70-21.79L33.70-21.79Q36.29-20.42 37.86-18.21L37.86-18.21L37.86-18.21Q39.42-16 39.42-12.67L39.42-12.67L39.42-12.67Q39.42-7.74 37.06-4.80L37.06-4.80L37.06-4.80Q34.69-1.86 30.59-0.54L30.59-0.54L30.59-0.54Q26.50 0.77 21.25 0.77ZM54.59 0.70L54.59 0.70L54.59 0.70Q52.10 0.70 50.66-0.35L50.66-0.35L50.66-0.35Q49.22-1.41 48.58-3.01L48.58-3.01L48.58-3.01Q47.94-4.61 47.94-6.40L47.94-6.40L47.94-28.99L43.84-28.99L43.84-33.66L48-33.66L49.22-43.01L53.57-43.01L53.57-33.66L59.26-33.66L59.26-28.99L53.57-28.99L53.57-6.91L53.57-6.91Q53.57-3.90 56.38-3.90L56.38-3.90L59.26-3.90L59.26-0.19L59.26-0.19Q58.43 0.19 57.09 0.45L57.09 0.45L57.09 0.45Q55.74 0.70 54.59 0.70ZM73.92 0.77L73.92 0.77L73.92 0.77Q72.32 0.77 70.40 0.42L70.40 0.42L70.40 0.42Q68.48 0.06 66.75-0.93L66.75-0.93L66.75-0.93Q65.02-1.92 63.90-3.78L63.90-3.78L63.90-3.78Q62.78-5.63 62.78-8.70L62.78-8.70L62.78-8.70Q62.78-13.31 65.70-15.74L65.70-15.74L65.70-15.74Q68.61-18.18 73.66-19.07L73.66-19.07L73.66-19.07Q78.72-19.97 85.18-19.97L85.18-19.97L85.18-23.68L85.18-23.68Q85.18-25.47 84.54-26.85L84.54-26.85L84.54-26.85Q83.90-28.22 82.24-28.99L82.24-28.99L82.24-28.99Q80.58-29.76 77.50-29.76L77.50-29.76L77.50-29.76Q74.50-29.76 72.83-28.96L72.83-28.96L72.83-28.96Q71.17-28.16 70.53-26.94L70.53-26.94L70.53-26.94Q69.89-25.73 69.89-24.45L69.89-24.45L69.89-23.68L64.45-23.68L64.45-23.68Q64.38-23.94 64.38-24.29L64.38-24.29L64.38-24.29Q64.38-24.64 64.38-25.09L64.38-25.09L64.38-25.09Q64.38-29.70 68.19-32.06L68.19-32.06L68.19-32.06Q72-34.43 78.02-34.43L78.02-34.43L78.02-34.43Q84.42-34.43 87.62-31.78L87.62-31.78L87.62-31.78Q90.82-29.12 90.82-24.38L90.82-24.38L90.82-6.14L90.82-6.14Q90.82-4.93 91.52-4.42L91.52-4.42L91.52-4.42Q92.22-3.90 93.06-3.90L93.06-3.90L95.62-3.90L95.62-0.26L95.62-0.26Q95.10 0 93.98 0.26L93.98 0.26L93.98 0.26Q92.86 0.51 91.26 0.51L91.26 0.51L91.26 0.51Q89.02 0.51 87.55-0.80L87.55-0.80L87.55-0.80Q86.08-2.11 85.63-4.29L85.63-4.29L85.18-4.29L85.18-4.29Q83.46-1.92 80.48-0.58L80.48-0.58L80.48-0.58Q77.50 0.77 73.92 0.77ZM75.39-3.90L75.39-3.90L75.39-3.90Q77.76-3.90 80-4.90L80-4.90L80-4.90Q82.24-5.89 83.71-7.87L83.71-7.87L83.71-7.87Q85.18-9.86 85.18-12.86L85.18-12.86L85.18-15.30L85.18-15.30Q80.26-15.30 76.54-14.82L76.54-14.82L76.54-14.82Q72.83-14.34 70.75-12.99L70.75-12.99L70.75-12.99Q68.67-11.65 68.67-9.02L68.67-9.02L68.67-9.02Q68.67-6.14 70.46-5.02L70.46-5.02L70.46-5.02Q72.26-3.90 75.39-3.90ZM105.98 0L100.35 0L100.35-33.66L104.64-33.66L105.28-29.12L105.73-29.12L105.73-29.12Q107.71-31.94 110.66-33.18L110.66-33.18L110.66-33.18Q113.60-34.43 117.06-34.43L117.06-34.43L117.06-34.43Q120.26-34.43 122.62-33.31L122.62-33.31L122.62-33.31Q124.99-32.19 126.27-29.66L126.27-29.66L126.27-29.66Q127.55-27.14 127.55-22.98L127.55-22.98L127.55 0L121.92 0L121.92-22.59L121.92-22.59Q121.92-26.88 120-28.32L120-28.32L120-28.32Q118.08-29.76 114.94-29.76L114.94-29.76L114.94-29.76Q112.58-29.76 110.53-28.58L110.53-28.58L110.53-28.58Q108.48-27.39 107.23-25.22L107.23-25.22L107.23-25.22Q105.98-23.04 105.98-19.90L105.98-19.90L105.98 0ZM147.20 0.77L147.20 0.77L147.20 0.77Q140.99 0.77 137.44-3.39L137.44-3.39L137.44-3.39Q133.89-7.55 133.89-16.83L133.89-16.83L133.89-16.83Q133.89-22.91 135.49-26.82L135.49-26.82L135.49-26.82Q137.09-30.72 140.00-32.58L140.00-32.58L140.00-32.58Q142.91-34.43 146.69-34.43L146.69-34.43L146.69-34.43Q150.21-34.43 152.74-33.34L152.74-33.34L152.74-33.34Q155.26-32.26 156.93-29.82L156.93-29.82L157.31-29.82L157.31-46.27L162.94-46.27L162.94 0L158.72 0L158.02-4.54L157.63-4.54L157.63-4.54Q155.97-1.92 153.22-0.58L153.22-0.58L153.22-0.58Q150.46 0.77 147.20 0.77ZM148.61-3.90L148.61-3.90L148.61-3.90Q153.28-3.90 155.30-7.20L155.30-7.20L155.30-7.20Q157.31-10.50 157.31-16.58L157.31-16.58L157.31-16.83L157.31-16.83Q157.31-23.04 155.26-26.40L155.26-26.40L155.26-26.40Q153.22-29.76 148.61-29.76L148.61-29.76L148.61-29.76Q143.87-29.76 141.79-26.91L141.79-26.91L141.79-26.91Q139.71-24.06 139.71-16.83L139.71-16.83L139.71-16.58L139.71-16.58Q139.71-9.54 141.76-6.72L141.76-6.72L141.76-6.72Q143.81-3.90 148.61-3.90ZM177.15 0L171.52 0L171.52-33.66L177.15-33.66L177.15 0ZM177.15-40L171.52-40L171.52-46.27L177.15-46.27L177.15-40ZM191.36 0L185.73 0L185.73-33.66L190.02-33.66L190.66-29.12L191.10-29.12L191.10-29.12Q193.09-31.94 196.03-33.18L196.03-33.18L196.03-33.18Q198.98-34.43 202.43-34.43L202.43-34.43L202.43-34.43Q205.63-34.43 208.00-33.31L208.00-33.31L208.00-33.31Q210.37-32.19 211.65-29.66L211.65-29.66L211.65-29.66Q212.93-27.14 212.93-22.98L212.93-22.98L212.93 0L207.30 0L207.30-22.59L207.30-22.59Q207.30-26.88 205.38-28.32L205.38-28.32L205.38-28.32Q203.46-29.76 200.32-29.76L200.32-29.76L200.32-29.76Q197.95-29.76 195.90-28.58L195.90-28.58L195.90-28.58Q193.86-27.39 192.61-25.22L192.61-25.22L192.61-25.22Q191.36-23.04 191.36-19.90L191.36-19.90L191.36 0ZM240.90 11.65L227.33 11.65L227.33 11.65Q225.28 11.65 223.17 10.94L223.17 10.94L223.17 10.94Q221.06 10.24 219.62 8.48L219.62 8.48L219.62 8.48Q218.18 6.72 218.18 3.52L218.18 3.52L218.18 3.52Q218.18 1.15 219.14-0.32L219.14-0.32L219.14-0.32Q220.10-1.79 221.38-2.56L221.38-2.56L221.38-2.56Q222.66-3.33 223.62-3.65L223.62-3.65L223.62-3.65Q222.21-4.42 221.15-5.73L221.15-5.73L221.15-5.73Q220.10-7.04 220.10-8.83L220.10-8.83L220.10-8.83Q220.10-10.75 221.12-11.87L221.12-11.87L221.12-11.87Q222.14-12.99 223.49-13.60L223.49-13.60L223.49-13.60Q224.83-14.21 225.73-14.40L225.73-14.40L225.73-14.40Q223.68-15.87 222.43-18.11L222.43-18.11L222.43-18.11Q221.18-20.35 221.18-23.10L221.18-23.10L221.18-23.10Q221.18-28.54 224.86-31.49L224.86-31.49L224.86-31.49Q228.54-34.43 234.82-34.43L234.82-34.43L234.82-34.43Q238.34-34.43 241.22-33.28L241.22-33.28L241.22-33.28Q243.71-34.50 244.77-36L244.77-36L244.77-36Q245.82-37.50 246.08-39.10L246.08-39.10L251.46-39.10L251.46-39.10Q251.46-36.10 249.66-33.92L249.66-33.92L249.66-33.92Q247.87-31.74 244.93-31.04L244.93-31.04L244.93-31.04Q246.59-29.57 247.55-27.55L247.55-27.55L247.55-27.55Q248.51-25.54 248.51-23.10L248.51-23.10L248.51-23.10Q248.51-17.66 244.80-14.72L244.80-14.72L244.80-14.72Q241.09-11.78 234.82-11.78L234.82-11.78L229.44-11.78L229.44-11.78Q227.65-11.78 226.75-10.98L226.75-10.98L226.75-10.98Q225.86-10.18 225.86-9.02L225.86-9.02L225.86-9.02Q225.86-7.87 226.75-7.07L226.75-7.07L226.75-7.07Q227.65-6.27 229.44-6.27L229.44-6.27L242.94-6.27L242.94-6.27Q245.70-6.27 247.62-5.12L247.62-5.12L247.62-5.12Q249.54-3.97 250.53-2.11L250.53-2.11L250.53-2.11Q251.52-0.26 251.52 1.92L251.52 1.92L251.52 1.92Q251.52 4.22 250.46 6.46L250.46 6.46L250.46 6.46Q249.41 8.70 247.10 10.18L247.10 10.18L247.10 10.18Q244.80 11.65 240.90 11.65L240.90 11.65ZM227.84 7.10L227.84 7.10L241.02 7.10L241.02 7.10Q243.14 7.10 244.54 5.95L244.54 5.95L244.54 5.95Q245.95 4.80 245.95 2.88L245.95 2.88L245.95 2.88Q245.95 0.90 244.80-0.19L244.80-0.19L244.80-0.19Q243.65-1.28 241.86-1.28L241.86-1.28L227.84-1.28L227.84-1.28Q225.98-1.28 224.90-0.19L224.90-0.19L224.90-0.19Q223.81 0.90 223.81 2.88L223.81 2.88L223.81 2.88Q223.81 4.80 224.90 5.95L224.90 5.95L224.90 5.95Q225.98 7.10 227.84 7.10ZM234.88-16.13L234.88-16.13L234.88-16.13Q238.91-16.13 240.93-17.95L240.93-17.95L240.93-17.95Q242.94-19.78 242.94-23.10L242.94-23.10L242.94-23.10Q242.94-26.43 240.93-28.26L240.93-28.26L240.93-28.26Q238.91-30.08 234.88-30.08L234.88-30.08L234.88-30.08Q230.85-30.08 228.83-28.26L228.83-28.26L228.83-28.26Q226.82-26.43 226.82-23.10L226.82-23.10L226.82-23.10Q226.82-19.78 228.83-17.95L228.83-17.95L228.83-17.95Q230.85-16.13 234.88-16.13ZM281.54 0L275.46 0L275.46-43.90L306.56-43.90L306.56-38.59L281.54-38.59L281.54-24.64L304.26-24.64L304.26-19.33L281.54-19.33L281.54 0ZM327.30 0.77L327.30 0.77L327.30 0.77Q319.68 0.77 315.71-3.49L315.71-3.49L315.71-3.49Q311.74-7.74 311.74-16.83L311.74-16.83L311.74-16.83Q311.74-25.92 315.71-30.18L315.71-30.18L315.71-30.18Q319.68-34.43 327.30-34.43L327.30-34.43L327.30-34.43Q334.91-34.43 338.88-30.18L338.88-30.18L338.88-30.18Q342.85-25.92 342.85-16.83L342.85-16.83L342.85-16.83Q342.85-7.74 338.88-3.49L338.88-3.49L338.88-3.49Q334.91 0.77 327.30 0.77ZM327.30-3.90L327.30-3.90L327.30-3.90Q332.42-3.90 334.72-6.88L334.72-6.88L334.72-6.88Q337.02-9.86 337.02-16.58L337.02-16.58L337.02-17.09L337.02-17.09Q337.02-23.81 334.72-26.78L334.72-26.78L334.72-26.78Q332.42-29.76 327.30-29.76L327.30-29.76L327.30-29.76Q322.18-29.76 319.87-26.78L319.87-26.78L319.87-26.78Q317.57-23.81 317.57-17.09L317.57-17.09L317.57-16.58L317.57-16.58Q317.57-9.86 319.87-6.88L319.87-6.88L319.87-6.88Q322.18-3.90 327.30-3.90ZM355.01 0L349.38 0L349.38-33.66L353.66-33.66L354.30-28.61L354.69-28.61L354.69-28.61Q355.52-30.72 357.34-32.58L357.34-32.58L357.34-32.58Q359.17-34.43 362.62-34.43L362.62-34.43L362.62-34.43Q363.97-34.43 364.80-34.18L364.80-34.18L364.80-34.18Q365.63-33.92 365.63-33.92L365.63-33.92L365.63-28.48L363.26-28.48L363.26-28.48Q361.15-28.48 359.26-27.65L359.26-27.65L359.26-27.65Q357.38-26.82 356.19-24.93L356.19-24.93L356.19-24.93Q355.01-23.04 355.01-19.90L355.01-19.90L355.01 0ZM423.42 0L389.25 0L389.25-43.90L423.04-43.90L423.04-38.59L395.33-38.59L395.33-25.09L420.22-25.09L420.22-19.78L395.33-19.78L395.33-5.31L423.42-5.31L423.42 0ZM433.86 0L427.33 0L439.81-17.22L427.90-33.66L434.75-33.66L442.75-21.70L443.14-21.70L451.33-33.66L457.86-33.66L445.95-17.34L458.43 0L451.65 0L443.01-12.93L442.62-12.93L433.86 0ZM475.97 0.77L475.97 0.77L475.97 0.77Q468.29 0.77 464.70-3.49L464.70-3.49L464.70-3.49Q461.12-7.74 461.12-16.83L461.12-16.83L461.12-16.83Q461.12-25.92 464.74-30.18L464.74-30.18L464.74-30.18Q468.35-34.43 475.97-34.43L475.97-34.43L475.97-34.43Q483.01-34.43 486.14-31.04L486.14-31.04L486.14-31.04Q489.28-27.65 489.28-21.18L489.28-21.18L483.52-21.18L483.52-21.18Q483.52-25.54 481.95-27.65L481.95-27.65L481.95-27.65Q480.38-29.76 475.97-29.76L475.97-29.76L475.97-29.76Q471.36-29.76 469.15-26.78L469.15-26.78L469.15-26.78Q466.94-23.81 466.94-16.83L466.94-16.83L466.94-16.58L466.94-16.58Q466.94-9.73 469.09-6.82L469.09-6.82L469.09-6.82Q471.23-3.90 475.97-3.90L475.97-3.90L475.97-3.90Q480.26-3.90 482.05-6.11L482.05-6.11L482.05-6.11Q483.84-8.32 483.84-12.48L483.84-12.48L489.28-12.48L489.28-12.48Q489.28-8.96 487.97-5.95L487.97-5.95L487.97-5.95Q486.66-2.94 483.71-1.09L483.71-1.09L483.71-1.09Q480.77 0.77 475.97 0.77ZM509.44 0.77L509.44 0.77L509.44 0.77Q501.31 0.77 497.34-3.49L497.34-3.49L497.34-3.49Q493.38-7.74 493.38-16.83L493.38-16.83L493.38-16.83Q493.38-25.92 497.38-30.18L497.38-30.18L497.38-30.18Q501.38-34.43 509.44-34.43L509.44-34.43L509.44-34.43Q516.54-34.43 520.26-30.66L520.26-30.66L520.26-30.66Q523.97-26.88 523.97-18.11L523.97-18.11L523.97-15.30L499.20-15.30L499.20-15.30Q499.46-9.47 501.92-6.69L501.92-6.69L501.92-6.69Q504.38-3.90 509.44-3.90L509.44-3.90L509.44-3.90Q511.87-3.90 513.95-4.67L513.95-4.67L513.95-4.67Q516.03-5.44 517.25-7.07L517.25-7.07L517.25-7.07Q518.46-8.70 518.46-11.46L518.46-11.46L523.97-11.46L523.97-11.46Q523.97-7.36 522.02-4.64L522.02-4.64L522.02-4.64Q520.06-1.92 516.80-0.58L516.80-0.58L516.80-0.58Q513.54 0.77 509.44 0.77ZM499.33-19.97L499.33-19.97L518.08-19.97L518.08-19.97Q518.08-25.28 515.71-27.52L515.71-27.52L515.71-27.52Q513.34-29.76 509.44-29.76L509.44-29.76L509.44-29.76Q504.70-29.76 502.27-27.49L502.27-27.49L502.27-27.49Q499.84-25.22 499.33-19.97ZM536.38 0L530.75 0L530.75-46.27L536.38-46.27L536.38 0ZM550.59 0L544.96 0L544.96-46.27L550.59-46.27L550.59 0ZM573.44 0.77L573.44 0.77L573.44 0.77Q565.31 0.77 561.34-3.49L561.34-3.49L561.34-3.49Q557.38-7.74 557.38-16.83L557.38-16.83L557.38-16.83Q557.38-25.92 561.38-30.18L561.38-30.18L561.38-30.18Q565.38-34.43 573.44-34.43L573.44-34.43L573.44-34.43Q580.54-34.43 584.26-30.66L584.26-30.66L584.26-30.66Q587.97-26.88 587.97-18.11L587.97-18.11L587.97-15.30L563.20-15.30L563.20-15.30Q563.46-9.47 565.92-6.69L565.92-6.69L565.92-6.69Q568.38-3.90 573.44-3.90L573.44-3.90L573.44-3.90Q575.87-3.90 577.95-4.67L577.95-4.67L577.95-4.67Q580.03-5.44 581.25-7.07L581.25-7.07L581.25-7.07Q582.46-8.70 582.46-11.46L582.46-11.46L587.97-11.46L587.97-11.46Q587.97-7.36 586.02-4.64L586.02-4.64L586.02-4.64Q584.06-1.92 580.80-0.58L580.80-0.58L580.80-0.58Q577.54 0.77 573.44 0.77ZM563.33-19.97L563.33-19.97L582.08-19.97L582.08-19.97Q582.08-25.28 579.71-27.52L579.71-27.52L579.71-27.52Q577.34-29.76 573.44-29.76L573.44-29.76L573.44-29.76Q568.70-29.76 566.27-27.49L566.27-27.49L566.27-27.49Q563.84-25.22 563.33-19.97ZM600.38 0L594.75 0L594.75-33.66L599.04-33.66L599.68-29.12L600.13-29.12L600.13-29.12Q602.11-31.94 605.06-33.18L605.06-33.18L605.06-33.18Q608-34.43 611.46-34.43L611.46-34.43L611.46-34.43Q614.66-34.43 617.02-33.31L617.02-33.31L617.02-33.31Q619.39-32.19 620.67-29.66L620.67-29.66L620.67-29.66Q621.95-27.14 621.95-22.98L621.95-22.98L621.95 0L616.32 0L616.32-22.59L616.32-22.59Q616.32-26.88 614.40-28.32L614.40-28.32L614.40-28.32Q612.48-29.76 609.34-29.76L609.34-29.76L609.34-29.76Q606.98-29.76 604.93-28.58L604.93-28.58L604.93-28.58Q602.88-27.39 601.63-25.22L601.63-25.22L601.63-25.22Q600.38-23.04 600.38-19.90L600.38-19.90L600.38 0ZM643.14 0.77L643.14 0.77L643.14 0.77Q635.46 0.77 631.87-3.49L631.87-3.49L631.87-3.49Q628.29-7.74 628.29-16.83L628.29-16.83L628.29-16.83Q628.29-25.92 631.90-30.18L631.90-30.18L631.90-30.18Q635.52-34.43 643.14-34.43L643.14-34.43L643.14-34.43Q650.18-34.43 653.31-31.04L653.31-31.04L653.31-31.04Q656.45-27.65 656.45-21.18L656.45-21.18L650.69-21.18L650.69-21.18Q650.69-25.54 649.12-27.65L649.12-27.65L649.12-27.65Q647.55-29.76 643.14-29.76L643.14-29.76L643.14-29.76Q638.53-29.76 636.32-26.78L636.32-26.78L636.32-26.78Q634.11-23.81 634.11-16.83L634.11-16.83L634.11-16.58L634.11-16.58Q634.11-9.73 636.26-6.82L636.26-6.82L636.26-6.82Q638.40-3.90 643.14-3.90L643.14-3.90L643.14-3.90Q647.42-3.90 649.22-6.11L649.22-6.11L649.22-6.11Q651.01-8.32 651.01-12.48L651.01-12.48L656.45-12.48L656.45-12.48Q656.45-8.96 655.14-5.95L655.14-5.95L655.14-5.95Q653.82-2.94 650.88-1.09L650.88-1.09L650.88-1.09Q647.94 0.77 643.14 0.77ZM676.61 0.77L676.61 0.77L676.61 0.77Q668.48 0.77 664.51-3.49L664.51-3.49L664.51-3.49Q660.54-7.74 660.54-16.83L660.54-16.83L660.54-16.83Q660.54-25.92 664.54-30.18L664.54-30.18L664.54-30.18Q668.54-34.43 676.61-34.43L676.61-34.43L676.61-34.43Q683.71-34.43 687.42-30.66L687.42-30.66L687.42-30.66Q691.14-26.88 691.14-18.11L691.14-18.11L691.14-15.30L666.37-15.30L666.37-15.30Q666.62-9.47 669.09-6.69L669.09-6.69L669.09-6.69Q671.55-3.90 676.61-3.90L676.61-3.90L676.61-3.90Q679.04-3.90 681.12-4.67L681.12-4.67L681.12-4.67Q683.20-5.44 684.42-7.07L684.42-7.07L684.42-7.07Q685.63-8.70 685.63-11.46L685.63-11.46L691.14-11.46L691.14-11.46Q691.14-7.36 689.18-4.64L689.18-4.64L689.18-4.64Q687.23-1.92 683.97-0.58L683.97-0.58L683.97-0.58Q680.70 0.77 676.61 0.77ZM666.50-19.97L666.50-19.97L685.25-19.97L685.25-19.97Q685.25-25.28 682.88-27.52L682.88-27.52L682.88-27.52Q680.51-29.76 676.61-29.76L676.61-29.76L676.61-29.76Q671.87-29.76 669.44-27.49L669.44-27.49L669.44-27.49Q667.01-25.22 666.50-19.97Z" fill="none" stroke="#ffffa6" stroke-width="0.5"></path></g></g><style>text {
  font-size: 64px;
  font-family: Arial Black;
  dominant-baseline: central;
  text-anchor: middle;
}</style></svg>